<svg width="363" height="339" viewBox="0 0 363 339" fill="none" xmlns="http://www.w3.org/2000/svg">
<g clip-path="url(#clip0_21_744)">
<g clip-path="url(#clip1_21_744)">
<g clip-path="url(#clip2_21_744)">
<path d="M202.577 209.953L143.673 283.861L153.336 210.335L94.9773 230.2L137.807 183.605L77.0137 164.25L140.386 144.202L111.252 72.3701L176.858 110.589L196.075 40.2869L228.787 110.935L290.488 59.4421L268.383 112.92L335.152 90.4692L287.527 139.504L362.179 149.355L280.789 172.006L343.016 215.361L252.962 205.073L246.878 287.502L202.577 209.953Z" fill="#E8E6DF"/>
<path d="M325.725 151.613L270 145.258L312.866 103.707L252.817 127.45L272.815 82.1661L225.827 124.428L198.164 64.6678L182.253 122.862L127.944 91.2157L151.32 148.882L102.643 164.286L152.138 180.036L122.005 212.793L163.417 198.718L155.988 255.273L203.758 195.313L240.43 259.498L245.098 196.278L315.645 205.528L262.39 169.057L325.725 151.613Z" fill="#5B1F50"/>
<path d="M204.956 180.674L168.303 226.686L173.497 187.083L149.049 195.404L166.45 176.467L128.271 164.304L162.254 153.543L144.636 110.08L187.647 135.134L200.234 89.049L222.865 137.92L249.729 113.758L237.269 141.999L278.627 125.63L252.454 150.994L285.257 154.727L244.008 166.089L284.258 193.656L237.251 187.502L234 231.493L204.956 180.674Z" fill="#481E61"/>
</g>
</g>
<path d="M72.3325 291.411C71.3241 289.903 69.8386 288.732 68.2231 287.995C67.052 287.464 66.64 286 67.3014 284.894L77.5587 268.001C78.0575 267.188 77.9707 266.147 77.3418 265.431C73.6553 261.224 61.3054 247.096 56.6321 241.751C55.6997 240.688 54.019 240.764 53.2058 241.913C45.6592 252.517 39.0777 263.761 32.2467 274.843L32.3335 274.919C29.8505 278.627 30.6962 285.848 35.1201 288.353C38.2536 290.12 43.3172 289.611 45.7135 286.163C47.8386 283.116 46.9062 279.191 45.334 276.838C44.3364 275.342 42.8726 274.181 41.2679 273.444C40.086 272.891 39.674 271.416 40.3788 270.31L51.2107 253.244C51.9697 252.051 53.6287 251.878 54.6154 252.886L69.7627 268.315C70.4567 269.02 70.5868 270.104 70.088 270.95L59.2452 289.415L59.332 289.491C56.849 293.2 57.6947 300.421 62.1186 302.926C65.2521 304.693 70.3157 304.183 72.712 300.735C74.8372 297.688 73.9047 293.763 72.3325 291.411Z" fill="#E86221"/>
<path d="M276.766 2.99178C275.243 4.42442 274.228 6.32115 273.7 8.29859C273.314 9.73122 271.75 10.4778 270.369 9.933L249.188 1.66006C248.173 1.2565 247.015 1.55916 246.325 2.40663C242.263 7.39059 228.657 24.0576 223.519 30.3733C222.504 31.6243 222.91 33.5008 224.372 34.2071C237.877 40.6438 251.93 45.8699 265.841 51.4189L265.902 51.2978C270.593 53.3761 278.635 51.0153 280.605 45.5269C282.006 41.6527 280.422 36.0433 276.035 34.0053C272.177 32.2095 267.892 34.0255 265.536 36.2451C264.033 37.6575 263.018 39.534 262.49 41.4913C262.104 42.9239 260.5 43.6907 259.119 43.1055L237.633 34.2273C236.13 33.6017 235.602 31.7655 236.557 30.454L251.097 10.3769C251.767 9.46891 252.965 9.1057 254.021 9.48908L277.091 18.1051L277.152 17.984C281.843 20.0623 289.885 17.7015 291.855 12.2131C293.256 8.33895 291.672 2.72947 287.286 0.691497C283.407 -1.04381 279.142 0.772207 276.766 2.99178Z" fill="#E9BD10"/>
<path d="M36.8066 86.1826C30.1606 83.7722 19.1533 91.1404 14.4374 90.8968L10.5146 88.2679C9.80453 89.623 10.0922 91.184 11.2057 92.001L34.289 109.174C32.4035 110.516 30.7821 112.653 30.2341 114.984C29.6619 117.449 30.0846 120.913 32.7583 122.465C35.7871 124.232 40.1131 122.653 42.1625 120.026C45.0476 116.33 43.5589 110.312 40.3732 108.37L40.4202 108.276L18.5861 93.6639C25.2844 93.5113 32.984 86.0754 42.0903 93.3933C47.733 97.9248 49.1821 92.7696 47.3278 93.2593C45.4726 93.7656 43.9926 88.7814 36.8066 86.1826Z" fill="#A821E8"/>
</g>
<defs>
<clipPath id="clip0_21_744">
<rect width="363" height="339" fill="white"/>
</clipPath>
<clipPath id="clip1_21_744">
<rect width="285.165" height="247.215" fill="white" transform="translate(77.0137 40.2869)"/>
</clipPath>
<clipPath id="clip2_21_744">
<rect width="285.165" height="247.215" fill="white" transform="translate(77.0137 40.2869)"/>
</clipPath>
</defs>
</svg>
