<svg width="1859" height="760" viewBox="0 0 1859 760" fill="none" xmlns="http://www.w3.org/2000/svg">
<g clip-path="url(#clip0_65_437)">
<path d="M62.4541 636.761L66.9804 422.865L71.5067 636.761H62.4541Z" fill="url(#paint0_radial_65_437)"/>
<path d="M0 642.67L4.50402 453.345L9.03034 642.67H0Z" fill="url(#paint1_radial_65_437)"/>
<path d="M125.688 632.77L130.215 402.173L134.741 632.77H125.688Z" fill="url(#paint2_radial_65_437)"/>
<path d="M191.822 632.77L196.349 379.943L200.853 632.77H191.822Z" fill="url(#paint3_radial_65_437)"/>
<path d="M252.181 639.771L256.707 361.726L261.233 639.771H252.181Z" fill="url(#paint4_radial_65_437)"/>
<path d="M316.195 649.337L320.699 346.073L325.226 649.337H316.195Z" fill="url(#paint5_radial_65_437)"/>
<path d="M380.188 661.511L384.715 333.052L389.241 661.511H380.188Z" fill="url(#paint6_radial_65_437)"/>
<path d="M444.203 675.492L448.729 323.487L453.256 675.492H444.203Z" fill="url(#paint7_radial_65_437)"/>
<path d="M508.219 688.825L512.745 314.858L517.249 688.825H508.219Z" fill="url(#paint8_radial_65_437)"/>
<path d="M572.211 705.748L576.737 308.726L581.264 705.748H572.211Z" fill="url(#paint9_radial_65_437)"/>
<path d="M636.227 720.733L640.753 305.694L645.279 720.733H636.227Z" fill="url(#paint10_radial_65_437)"/>
<path d="M700.241 730.677L704.768 305.047L709.272 730.677H700.241Z" fill="url(#paint11_radial_65_437)"/>
<path d="M764.234 743.409L768.761 305.047L773.287 743.409H764.234Z" fill="url(#paint12_radial_65_437)"/>
<path d="M828.249 753.532L832.775 311.692L837.302 753.532H828.249Z" fill="url(#paint13_radial_65_437)"/>
<path d="M892.264 759.083L896.79 318.804L901.294 759.083H892.264Z" fill="url(#paint14_radial_65_437)"/>
<path d="M956.257 758.637L960.783 328.526L965.309 758.637H956.257Z" fill="url(#paint15_radial_65_437)"/>
<path d="M1020.27 753.576L1024.8 340.968L1029.32 753.576H1020.27Z" fill="url(#paint16_radial_65_437)"/>
<path d="M1084.29 743.23L1088.81 356.152L1093.32 743.23H1084.29Z" fill="url(#paint17_radial_65_437)"/>
<path d="M1148.28 727.644L1152.81 372.139L1157.33 727.644H1148.28Z" fill="url(#paint18_radial_65_437)"/>
<path d="M1212.29 708.112L1216.82 390.936L1221.35 708.112H1212.29Z" fill="url(#paint19_radial_65_437)"/>
<path d="M1276.31 685.102L1280.84 410.156L1285.34 685.102H1276.31Z" fill="url(#paint20_radial_65_437)"/>
<path d="M1340.3 660.062L1344.83 429.554L1349.36 660.062H1340.3Z" fill="url(#paint21_radial_65_437)"/>
<path d="M1404.32 636.449L1408.84 443.267L1413.37 636.449H1404.32Z" fill="url(#paint22_radial_65_437)"/>
<path d="M1468.33 611.097L1472.84 457.961L1477.36 611.097H1468.33Z" fill="url(#paint23_radial_65_437)"/>
<path d="M1532.33 587.864L1536.85 465.988L1541.38 587.864H1532.33Z" fill="url(#paint24_radial_65_437)"/>
<path d="M1596.34 567.351L1600.87 467.303L1605.39 567.351H1596.34Z" fill="url(#paint25_radial_65_437)"/>
<path d="M1659.15 551.832L1663.68 463.267L1668.18 551.832H1659.15Z" fill="url(#paint26_radial_65_437)"/>
<path d="M1724.48 539.858L1729.01 451.785L1733.54 539.858H1724.48Z" fill="url(#paint27_radial_65_437)"/>
<path d="M1789.83 535.822L1794.36 430.87L1798.89 535.822H1789.83Z" fill="url(#paint28_radial_65_437)"/>
<path d="M1849.93 539.858L1854.45 403.823L1858.96 539.858H1849.93Z" fill="url(#paint29_radial_65_437)"/>
</g>
<g clip-path="url(#clip1_65_437)">
<path d="M1534.43 466.344L1538.96 26.9795L1543.48 466.344H1534.43Z" fill="url(#paint30_linear_65_437)"/>
<path d="M1597.53 467.013L1602.04 47.3813L1606.56 467.013H1597.53Z" fill="url(#paint31_linear_65_437)"/>
<path d="M1345.2 434.883L1349.72 0L1354.23 434.883H1345.2Z" fill="url(#paint32_linear_65_437)"/>
<path d="M1408.27 448.975L1412.8 0L1417.33 448.975H1408.27Z" fill="url(#paint33_linear_65_437)"/>
<path d="M1471.35 461.327L1475.88 11.572L1480.41 461.327H1471.35Z" fill="url(#paint34_linear_65_437)"/>
<path d="M1282.09 418.428L1286.62 1.36011L1291.15 418.428H1282.09Z" fill="url(#paint35_linear_65_437)"/>
<path d="M1219.02 398.784L1223.54 7.80396L1228.07 398.784H1219.02Z" fill="url(#paint36_linear_65_437)"/>
<path d="M17 438.451L21.5263 75.3198L26.0526 438.451H17Z" fill="url(#paint37_linear_65_437)"/>
<path d="M903.154 323.754L907.681 86.6465L912.207 323.754H903.154Z" fill="url(#paint38_linear_65_437)"/>
<path d="M839.92 314.858L844.446 106.291L848.973 314.858H839.92Z" fill="url(#paint39_linear_65_437)"/>
<path d="M775.169 306.764L779.695 122.835L784.222 306.764H775.169Z" fill="url(#paint40_linear_65_437)"/>
<path d="M711.935 305.047L716.461 143.237L720.987 305.047H711.935Z" fill="url(#paint41_linear_65_437)"/>
<path d="M648.7 305.047L653.227 159.023L657.753 305.047H648.7Z" fill="url(#paint42_linear_65_437)"/>
<path d="M585.465 306.764L589.991 172.045L594.517 306.764H585.465Z" fill="url(#paint43_linear_65_437)"/>
<path d="M522.23 310.51L526.734 181.566L531.261 310.51H522.23Z" fill="url(#paint44_linear_65_437)"/>
<path d="M80.2344 413.389L84.7607 93.5364L89.287 413.389H80.2344Z" fill="url(#paint45_linear_65_437)"/>
<path d="M143.491 390.935L147.995 117.974L152.522 390.935H143.491Z" fill="url(#paint46_linear_65_437)"/>
<path d="M206.727 371.782L211.253 143.571L215.779 371.782H206.727Z" fill="url(#paint47_linear_65_437)"/>
<path d="M1155.94 381.325L1160.46 18.7742L1164.99 381.325H1155.94Z" fill="url(#paint48_linear_65_437)"/>
<path d="M1660.61 460.212L1665.14 69.3662L1669.64 460.212H1660.61Z" fill="url(#paint49_linear_65_437)"/>
<path d="M1723.69 447.191L1728.21 93.5364L1732.74 447.191H1723.69Z" fill="url(#paint50_linear_65_437)"/>
<path d="M1786.77 426.366L1791.29 117.327L1795.82 426.366H1786.77Z" fill="url(#paint51_linear_65_437)"/>
<path d="M1849.85 392.117L1854.37 139.959L1858.9 392.117H1849.85Z" fill="url(#paint52_linear_65_437)"/>
<path d="M1092.7 363.265L1097.23 32.7991L1101.75 363.265H1092.7Z" fill="url(#paint53_linear_65_437)"/>
<path d="M1027.95 345.762L1032.48 49.3882L1037 345.762H1027.95Z" fill="url(#paint54_linear_65_437)"/>
<path d="M964.717 334.501L969.243 67.7832L973.769 334.501H964.717Z" fill="url(#paint55_linear_65_437)"/>
<path d="M269.961 353.566L274.487 163.639L279.014 353.566H269.961Z" fill="url(#paint56_linear_65_437)"/>
<path d="M333.195 339.608L337.722 179.76L342.248 339.608H333.195Z" fill="url(#paint57_linear_65_437)"/>
<path d="M396.43 327.723L400.956 187.184L405.482 327.723H396.43Z" fill="url(#paint58_linear_65_437)"/>
<path d="M459.688 318.358L464.214 187.853L468.718 318.358H459.688Z" fill="url(#paint59_linear_65_437)"/>
</g>
<defs>
<radialGradient id="paint0_radial_65_437" cx="0" cy="0" r="1" gradientUnits="userSpaceOnUse" gradientTransform="translate(1582.77 -261.209) scale(1311.19 1732.61)">
<stop offset="0.2884" stop-color="#382D87"/>
<stop offset="1" stop-color="#C81D84"/>
</radialGradient>
<radialGradient id="paint1_radial_65_437" cx="0" cy="0" r="1" gradientUnits="userSpaceOnUse" gradientTransform="translate(1582.76 -261.208) scale(1311.19 1732.6)">
<stop offset="0.2884" stop-color="#382D87"/>
<stop offset="1" stop-color="#C81D84"/>
</radialGradient>
<radialGradient id="paint2_radial_65_437" cx="0" cy="0" r="1" gradientUnits="userSpaceOnUse" gradientTransform="translate(1582.76 -261.208) scale(1311.19 1732.6)">
<stop offset="0.2884" stop-color="#382D87"/>
<stop offset="1" stop-color="#C81D84"/>
</radialGradient>
<radialGradient id="paint3_radial_65_437" cx="0" cy="0" r="1" gradientUnits="userSpaceOnUse" gradientTransform="translate(1582.73 -261.208) scale(1311.16 1732.57)">
<stop offset="0.2884" stop-color="#382D87"/>
<stop offset="1" stop-color="#C81D84"/>
</radialGradient>
<radialGradient id="paint4_radial_65_437" cx="0" cy="0" r="1" gradientUnits="userSpaceOnUse" gradientTransform="translate(1582.73 -261.208) scale(1311.16 1732.57)">
<stop offset="0.2884" stop-color="#382D87"/>
<stop offset="1" stop-color="#C81D84"/>
</radialGradient>
<radialGradient id="paint5_radial_65_437" cx="0" cy="0" r="1" gradientUnits="userSpaceOnUse" gradientTransform="translate(1582.76 -261.208) scale(1311.18 1732.59)">
<stop offset="0.2884" stop-color="#382D87"/>
<stop offset="1" stop-color="#C81D84"/>
</radialGradient>
<radialGradient id="paint6_radial_65_437" cx="0" cy="0" r="1" gradientUnits="userSpaceOnUse" gradientTransform="translate(1582.76 -261.209) scale(1311.19 1732.61)">
<stop offset="0.2884" stop-color="#382D87"/>
<stop offset="1" stop-color="#C81D84"/>
</radialGradient>
<radialGradient id="paint7_radial_65_437" cx="0" cy="0" r="1" gradientUnits="userSpaceOnUse" gradientTransform="translate(1582.76 -261.208) scale(1311.19 1732.61)">
<stop offset="0.2884" stop-color="#382D87"/>
<stop offset="1" stop-color="#C81D84"/>
</radialGradient>
<radialGradient id="paint8_radial_65_437" cx="0" cy="0" r="1" gradientUnits="userSpaceOnUse" gradientTransform="translate(1582.76 -261.207) scale(1311.18 1732.6)">
<stop offset="0.2884" stop-color="#382D87"/>
<stop offset="1" stop-color="#C81D84"/>
</radialGradient>
<radialGradient id="paint9_radial_65_437" cx="0" cy="0" r="1" gradientUnits="userSpaceOnUse" gradientTransform="translate(1582.77 -261.207) scale(1311.2 1732.61)">
<stop offset="0.2884" stop-color="#382D87"/>
<stop offset="1" stop-color="#C81D84"/>
</radialGradient>
<radialGradient id="paint10_radial_65_437" cx="0" cy="0" r="1" gradientUnits="userSpaceOnUse" gradientTransform="translate(1582.76 -261.21) scale(1311.18 1732.6)">
<stop offset="0.2884" stop-color="#382D87"/>
<stop offset="1" stop-color="#C81D84"/>
</radialGradient>
<radialGradient id="paint11_radial_65_437" cx="0" cy="0" r="1" gradientUnits="userSpaceOnUse" gradientTransform="translate(1582.76 -261.206) scale(1311.18 1732.6)">
<stop offset="0.2884" stop-color="#382D87"/>
<stop offset="1" stop-color="#C81D84"/>
</radialGradient>
<radialGradient id="paint12_radial_65_437" cx="0" cy="0" r="1" gradientUnits="userSpaceOnUse" gradientTransform="translate(1582.74 -261.208) scale(1311.18 1732.59)">
<stop offset="0.2884" stop-color="#382D87"/>
<stop offset="1" stop-color="#C81D84"/>
</radialGradient>
<radialGradient id="paint13_radial_65_437" cx="0" cy="0" r="1" gradientUnits="userSpaceOnUse" gradientTransform="translate(1582.76 -261.21) scale(1311.19 1732.61)">
<stop offset="0.2884" stop-color="#382D87"/>
<stop offset="1" stop-color="#C81D84"/>
</radialGradient>
<radialGradient id="paint14_radial_65_437" cx="0" cy="0" r="1" gradientUnits="userSpaceOnUse" gradientTransform="translate(1582.76 -261.21) scale(1311.2 1732.62)">
<stop offset="0.2884" stop-color="#382D87"/>
<stop offset="1" stop-color="#C81D84"/>
</radialGradient>
<radialGradient id="paint15_radial_65_437" cx="0" cy="0" r="1" gradientUnits="userSpaceOnUse" gradientTransform="translate(1582.76 -261.208) scale(1311.2 1732.62)">
<stop offset="0.2884" stop-color="#382D87"/>
<stop offset="1" stop-color="#C81D84"/>
</radialGradient>
<radialGradient id="paint16_radial_65_437" cx="0" cy="0" r="1" gradientUnits="userSpaceOnUse" gradientTransform="translate(1582.76 -261.208) scale(1311.2 1732.62)">
<stop offset="0.2884" stop-color="#382D87"/>
<stop offset="1" stop-color="#C81D84"/>
</radialGradient>
<radialGradient id="paint17_radial_65_437" cx="0" cy="0" r="1" gradientUnits="userSpaceOnUse" gradientTransform="translate(1582.76 -261.209) scale(1311.2 1732.62)">
<stop offset="0.2884" stop-color="#382D87"/>
<stop offset="1" stop-color="#C81D84"/>
</radialGradient>
<radialGradient id="paint18_radial_65_437" cx="0" cy="0" r="1" gradientUnits="userSpaceOnUse" gradientTransform="translate(1582.74 -261.21) scale(1311.19 1732.61)">
<stop offset="0.2884" stop-color="#382D87"/>
<stop offset="1" stop-color="#C81D84"/>
</radialGradient>
<radialGradient id="paint19_radial_65_437" cx="0" cy="0" r="1" gradientUnits="userSpaceOnUse" gradientTransform="translate(1582.76 -261.207) scale(1311.2 1732.62)">
<stop offset="0.2884" stop-color="#382D87"/>
<stop offset="1" stop-color="#C81D84"/>
</radialGradient>
<radialGradient id="paint20_radial_65_437" cx="0" cy="0" r="1" gradientUnits="userSpaceOnUse" gradientTransform="translate(1582.76 -261.208) scale(1311.2 1732.63)">
<stop offset="0.2884" stop-color="#382D87"/>
<stop offset="1" stop-color="#C81D84"/>
</radialGradient>
<radialGradient id="paint21_radial_65_437" cx="0" cy="0" r="1" gradientUnits="userSpaceOnUse" gradientTransform="translate(1582.75 -261.207) scale(1311.19 1732.61)">
<stop offset="0.2884" stop-color="#382D87"/>
<stop offset="1" stop-color="#C81D84"/>
</radialGradient>
<radialGradient id="paint22_radial_65_437" cx="0" cy="0" r="1" gradientUnits="userSpaceOnUse" gradientTransform="translate(1582.75 -261.209) scale(1311.2 1732.63)">
<stop offset="0.2884" stop-color="#382D87"/>
<stop offset="1" stop-color="#C81D84"/>
</radialGradient>
<radialGradient id="paint23_radial_65_437" cx="0" cy="0" r="1" gradientUnits="userSpaceOnUse" gradientTransform="translate(1582.75 -261.209) scale(1311.22 1732.63)">
<stop offset="0.2884" stop-color="#382D87"/>
<stop offset="1" stop-color="#C81D84"/>
</radialGradient>
<radialGradient id="paint24_radial_65_437" cx="0" cy="0" r="1" gradientUnits="userSpaceOnUse" gradientTransform="translate(1582.75 -261.208) scale(1311.2 1732.63)">
<stop offset="0.2884" stop-color="#382D87"/>
<stop offset="1" stop-color="#C81D84"/>
</radialGradient>
<radialGradient id="paint25_radial_65_437" cx="0" cy="0" r="1" gradientUnits="userSpaceOnUse" gradientTransform="translate(1582.75 -261.21) scale(1311.2 1732.63)">
<stop offset="0.2884" stop-color="#382D87"/>
<stop offset="1" stop-color="#C81D84"/>
</radialGradient>
<radialGradient id="paint26_radial_65_437" cx="0" cy="0" r="1" gradientUnits="userSpaceOnUse" gradientTransform="translate(1582.75 -261.21) scale(1311.2 1732.63)">
<stop offset="0.2884" stop-color="#382D87"/>
<stop offset="1" stop-color="#C81D84"/>
</radialGradient>
<radialGradient id="paint27_radial_65_437" cx="0" cy="0" r="1" gradientUnits="userSpaceOnUse" gradientTransform="translate(1582.75 -261.209) scale(1311.2 1732.63)">
<stop offset="0.2884" stop-color="#382D87"/>
<stop offset="1" stop-color="#C81D84"/>
</radialGradient>
<radialGradient id="paint28_radial_65_437" cx="0" cy="0" r="1" gradientUnits="userSpaceOnUse" gradientTransform="translate(1582.75 -261.208) scale(1311.2 1732.62)">
<stop offset="0.2884" stop-color="#382D87"/>
<stop offset="1" stop-color="#C81D84"/>
</radialGradient>
<radialGradient id="paint29_radial_65_437" cx="0" cy="0" r="1" gradientUnits="userSpaceOnUse" gradientTransform="translate(1582.75 -261.209) scale(1311.2 1732.62)">
<stop offset="0.2884" stop-color="#382D87"/>
<stop offset="1" stop-color="#C81D84"/>
</radialGradient>
<linearGradient id="paint30_linear_65_437" x1="1538.96" y1="-205.385" x2="1538.96" y2="395.475" gradientUnits="userSpaceOnUse">
<stop/>
<stop offset="1" stop-color="#382D87"/>
</linearGradient>
<linearGradient id="paint31_linear_65_437" x1="1602.04" y1="-205.385" x2="1602.04" y2="395.474" gradientUnits="userSpaceOnUse">
<stop/>
<stop offset="1" stop-color="#382D87"/>
</linearGradient>
<linearGradient id="paint32_linear_65_437" x1="1349.71" y1="-205.385" x2="1349.71" y2="395.476" gradientUnits="userSpaceOnUse">
<stop/>
<stop offset="1" stop-color="#382D87"/>
</linearGradient>
<linearGradient id="paint33_linear_65_437" x1="1412.79" y1="-205.386" x2="1412.79" y2="395.475" gradientUnits="userSpaceOnUse">
<stop/>
<stop offset="1" stop-color="#382D87"/>
</linearGradient>
<linearGradient id="paint34_linear_65_437" x1="1475.88" y1="-205.385" x2="1475.88" y2="395.477" gradientUnits="userSpaceOnUse">
<stop/>
<stop offset="1" stop-color="#382D87"/>
</linearGradient>
<linearGradient id="paint35_linear_65_437" x1="1286.63" y1="-205.385" x2="1286.63" y2="395.476" gradientUnits="userSpaceOnUse">
<stop/>
<stop offset="1" stop-color="#382D87"/>
</linearGradient>
<linearGradient id="paint36_linear_65_437" x1="1223.54" y1="-205.385" x2="1223.54" y2="395.474" gradientUnits="userSpaceOnUse">
<stop/>
<stop offset="1" stop-color="#382D87"/>
</linearGradient>
<linearGradient id="paint37_linear_65_437" x1="21.5283" y1="-205.385" x2="21.5283" y2="395.477" gradientUnits="userSpaceOnUse">
<stop/>
<stop offset="1" stop-color="#382D87"/>
</linearGradient>
<linearGradient id="paint38_linear_65_437" x1="907.687" y1="-205.384" x2="907.687" y2="395.476" gradientUnits="userSpaceOnUse">
<stop/>
<stop offset="1" stop-color="#382D87"/>
</linearGradient>
<linearGradient id="paint39_linear_65_437" x1="844.448" y1="-205.385" x2="844.448" y2="395.475" gradientUnits="userSpaceOnUse">
<stop/>
<stop offset="1" stop-color="#382D87"/>
</linearGradient>
<linearGradient id="paint40_linear_65_437" x1="779.701" y1="-205.385" x2="779.701" y2="395.476" gradientUnits="userSpaceOnUse">
<stop/>
<stop offset="1" stop-color="#382D87"/>
</linearGradient>
<linearGradient id="paint41_linear_65_437" x1="716.462" y1="-205.385" x2="716.462" y2="395.476" gradientUnits="userSpaceOnUse">
<stop/>
<stop offset="1" stop-color="#382D87"/>
</linearGradient>
<linearGradient id="paint42_linear_65_437" x1="653.223" y1="-205.386" x2="653.223" y2="395.474" gradientUnits="userSpaceOnUse">
<stop/>
<stop offset="1" stop-color="#382D87"/>
</linearGradient>
<linearGradient id="paint43_linear_65_437" x1="589.983" y1="-205.386" x2="589.983" y2="395.475" gradientUnits="userSpaceOnUse">
<stop/>
<stop offset="1" stop-color="#382D87"/>
</linearGradient>
<linearGradient id="paint44_linear_65_437" x1="526.744" y1="-205.299" x2="526.744" y2="395.561" gradientUnits="userSpaceOnUse">
<stop/>
<stop offset="1" stop-color="#382D87"/>
</linearGradient>
<linearGradient id="paint45_linear_65_437" x1="84.7674" y1="-205.385" x2="84.7674" y2="395.476" gradientUnits="userSpaceOnUse">
<stop/>
<stop offset="1" stop-color="#382D87"/>
</linearGradient>
<linearGradient id="paint46_linear_65_437" x1="148.006" y1="-205.385" x2="148.006" y2="395.475" gradientUnits="userSpaceOnUse">
<stop/>
<stop offset="1" stop-color="#382D87"/>
</linearGradient>
<linearGradient id="paint47_linear_65_437" x1="211.246" y1="-205.386" x2="211.246" y2="395.474" gradientUnits="userSpaceOnUse">
<stop/>
<stop offset="1" stop-color="#382D87"/>
</linearGradient>
<linearGradient id="paint48_linear_65_437" x1="1160.46" y1="-205.385" x2="1160.46" y2="395.476" gradientUnits="userSpaceOnUse">
<stop/>
<stop offset="1" stop-color="#382D87"/>
</linearGradient>
<linearGradient id="paint49_linear_65_437" x1="1665.13" y1="-205.385" x2="1665.13" y2="395.474" gradientUnits="userSpaceOnUse">
<stop/>
<stop offset="1" stop-color="#382D87"/>
</linearGradient>
<linearGradient id="paint50_linear_65_437" x1="1728.21" y1="-205.386" x2="1728.21" y2="395.474" gradientUnits="userSpaceOnUse">
<stop/>
<stop offset="1" stop-color="#382D87"/>
</linearGradient>
<linearGradient id="paint51_linear_65_437" x1="1791.3" y1="-205.385" x2="1791.3" y2="395.475" gradientUnits="userSpaceOnUse">
<stop/>
<stop offset="1" stop-color="#382D87"/>
</linearGradient>
<linearGradient id="paint52_linear_65_437" x1="1854.38" y1="-205.384" x2="1854.38" y2="395.475" gradientUnits="userSpaceOnUse">
<stop/>
<stop offset="1" stop-color="#382D87"/>
</linearGradient>
<linearGradient id="paint53_linear_65_437" x1="1097.22" y1="-205.385" x2="1097.22" y2="395.477" gradientUnits="userSpaceOnUse">
<stop/>
<stop offset="1" stop-color="#382D87"/>
</linearGradient>
<linearGradient id="paint54_linear_65_437" x1="1032.47" y1="-205.385" x2="1032.47" y2="395.476" gradientUnits="userSpaceOnUse">
<stop/>
<stop offset="1" stop-color="#382D87"/>
</linearGradient>
<linearGradient id="paint55_linear_65_437" x1="969.235" y1="-205.383" x2="969.235" y2="395.477" gradientUnits="userSpaceOnUse">
<stop/>
<stop offset="1" stop-color="#382D87"/>
</linearGradient>
<linearGradient id="paint56_linear_65_437" x1="274.485" y1="-205.386" x2="274.485" y2="395.475" gradientUnits="userSpaceOnUse">
<stop/>
<stop offset="1" stop-color="#382D87"/>
</linearGradient>
<linearGradient id="paint57_linear_65_437" x1="337.724" y1="-205.384" x2="337.724" y2="395.477" gradientUnits="userSpaceOnUse">
<stop/>
<stop offset="1" stop-color="#382D87"/>
</linearGradient>
<linearGradient id="paint58_linear_65_437" x1="400.963" y1="-205.385" x2="400.963" y2="395.475" gradientUnits="userSpaceOnUse">
<stop/>
<stop offset="1" stop-color="#382D87"/>
</linearGradient>
<linearGradient id="paint59_linear_65_437" x1="464.203" y1="-205.385" x2="464.203" y2="395.476" gradientUnits="userSpaceOnUse">
<stop/>
<stop offset="1" stop-color="#382D87"/>
</linearGradient>
<clipPath id="clip0_65_437">
<rect width="1858.96" height="454.036" fill="white" transform="translate(0 305.047)"/>
</clipPath>
<clipPath id="clip1_65_437">
<rect width="1841.9" height="467.013" fill="white" transform="translate(17)"/>
</clipPath>
</defs>
</svg>
