<svg width="600" height="600" viewBox="0 0 900 900" fill="none" xmlns="http://www.w3.org/2000/svg" >
<g clip-path="url(#clip0_9_5965)">
<g filter="url(#filter0_f_9_5965)">
<path d="M231.76 443.082L259.113 407.451C267.67 396.304 281.272 390.226 295.284 391.287L297.093 391.424C321.609 393.281 338.691 416.569 333.097 440.511C329.474 456.016 335.373 472.195 348.126 481.731L355.21 487.028C375.948 502.534 404.805 501.001 423.784 483.385L433.365 474.492C451.101 458.03 476.141 452.014 499.42 458.622L515.197 463.1C579.52 481.36 607.315 557.059 570.091 612.604L502.093 714.068C478.72 748.945 434.026 762.548 395.186 746.607L286.969 702.194C260.862 691.479 259.047 655.196 283.955 641.93C304.695 630.883 307.803 602.42 289.935 587.158L242.644 546.763C212.014 520.6 207.231 475.036 231.76 443.082Z" fill="url(#paint0_linear_9_5965)"/>
<path d="M366.09 391.448L367.252 434.697C367.595 447.457 376.433 458.228 390.329 462.822C413.162 470.37 441.338 458.987 450.615 438.466L453.488 432.11C460.063 417.565 475.38 406.178 493.484 402.373L497.161 401.601C527.033 395.324 554.891 408.949 560.476 432.568L562.436 440.858C567.279 461.34 586.497 476.27 611.796 479.206L635.687 481.978C701.623 489.628 766.606 444.036 769.282 388.248L775.298 262.865C777.314 220.84 739.91 188.289 689.009 187.773L580.832 186.674C548.594 186.347 524.597 215.873 538.868 238.307C550.551 256.672 536.551 281.287 510.481 288.215L441.932 306.433C396.991 318.376 365.088 354.137 366.09 391.448Z" fill="url(#paint1_linear_9_5965)"/>
</g>
<path d="M478.024 337.816L496.504 334.697C499.246 335.527 501.422 338.746 502.536 343.607C503.799 349.132 503.583 356.084 501.921 363.168C498.647 377.155 490.505 387.707 484.107 386.214C484.024 386.197 483.957 386.181 483.874 386.181L464.614 384.389C469.433 381.021 474.202 374.948 477.626 367.167C480.517 360.613 481.98 353.877 481.747 348.186C481.581 343.557 480.268 339.973 478.024 337.816Z" fill="#561E77"/>
<path d="M477.642 367.184C479.204 363.633 480.334 360.033 481.032 356.565C488.677 355.735 496.204 354.292 503.35 351.14C503.367 354.939 502.918 359.037 501.938 363.185C498.664 377.172 490.521 387.724 484.123 386.231C484.04 386.214 483.974 386.197 483.891 386.197L464.63 384.406C469.45 381.037 474.202 374.965 477.642 367.184Z" fill="#4F0F75"/>
<path d="M519.37 366.951C519.37 381.618 512.291 463.729 512.208 464.559C512.191 464.841 510.463 486.626 487.43 509.19C503.599 488.799 504.779 470.548 504.846 469.57C505.128 466.235 512.008 386.529 512.008 371.73C512.008 364.081 510.064 356.134 506.707 349.879C506.624 347.39 506.341 345.034 505.843 342.86C505.195 339.99 504.181 337.634 502.918 335.759C514.783 340.04 519.37 356.2 519.37 366.951Z" fill="#4F0F75"/>
<path d="M448.245 471.461C436.247 475.874 423.9 467.512 420.809 465.173C420.825 465.156 420.825 465.139 420.842 465.123C423.9 461.639 442.828 460.759 454.211 461.008C452.732 466.716 450.771 470.532 448.245 471.461Z" fill="#4C0378"/>
<path d="M460.908 387.442L483.459 389.532C484.073 389.665 484.672 389.731 485.303 389.731C493.23 389.731 501.705 378.997 505.228 363.932C505.727 361.808 506.092 359.684 506.341 357.61C507.82 362.057 508.635 366.935 508.635 371.713C508.635 386.38 501.556 468.491 501.472 469.321C501.456 469.669 499.462 499.351 466.841 524.687C441.432 537.611 420.161 525.068 415.973 522.281L420.41 469.055C425.462 472.506 437.311 479.06 449.408 474.613C464.863 468.956 461.54 398.624 460.908 387.442Z" fill="#561E77"/>
<path d="M415.956 522.297L420.393 469.072C423.168 470.963 427.988 473.784 433.787 475.227C436.712 495.021 445.137 514.483 458.93 527.972C437.128 535.056 419.695 524.786 415.956 522.297Z" fill="#4F0F75"/>
<path d="M428.985 531.738C429.217 533.364 430.065 541.743 423.301 543.535C419.546 544.53 415.657 545.575 414.112 549.142C412.167 553.622 414.527 561.337 422.254 575.772C434.336 598.32 461.556 653.437 467.605 665.681H460.625C456.571 657.452 427.19 597.888 414.494 574.179C407.597 561.304 405.055 553.771 406.484 550.486C407.315 548.562 409.791 547.782 413.447 546.803C422.471 544.397 423.069 532.7 423.069 529.697C424.847 530.427 426.808 531.124 428.985 531.738Z" fill="#4C0378"/>
<path d="M471.361 665.681C467.306 657.451 437.925 597.888 425.229 574.179C418.333 561.304 415.79 553.771 417.219 550.486C418.05 548.561 420.526 547.782 424.182 546.803C431.511 544.845 432.84 537.429 432.491 532.6C435.915 533.33 439.654 533.812 443.708 533.812C451.037 533.812 459.279 532.252 467.971 527.905C468.187 527.855 468.386 527.772 468.569 527.623C468.602 527.606 468.619 527.573 468.652 527.557C472.075 525.781 475.582 523.591 479.121 520.87C490.671 511.961 498.564 502.819 503.965 494.573L512.523 516.391C507.538 515.826 495.49 515.047 489.258 519.576C487.048 521.185 485.735 523.293 485.353 525.848C483.475 538.358 517.758 546.056 524.787 547.483C535.207 569.815 553.104 598.85 580.324 614.579L598.372 655.908L552.772 652.076C550.047 643.714 536.802 603.877 529.258 598.087C507.272 581.197 486.184 573.449 466.591 575.091C457.418 575.854 451.236 578.957 448.228 584.316C443.276 593.093 448.86 604.458 449.109 604.939L478.373 665.681H471.361Z" fill="#4A136B"/>
<path d="M435.084 542.472C433.455 542.472 431.843 542.506 430.231 542.555C432.275 539.502 432.707 535.57 432.491 532.6C435.915 533.33 439.654 533.812 443.708 533.812C451.037 533.812 459.279 532.252 467.971 527.905C468.187 527.855 468.386 527.772 468.569 527.623C468.602 527.606 468.619 527.573 468.652 527.557C472.075 525.781 475.582 523.591 479.121 520.87C490.671 511.961 498.564 502.819 503.965 494.573L512.523 516.391C507.538 515.826 495.49 515.047 489.258 519.576C487.048 521.185 485.735 523.293 485.353 525.848C483.475 538.358 517.758 546.056 524.787 547.483C535.207 569.815 553.104 598.85 580.324 614.579L598.371 655.908L581.371 654.481C579.327 647.944 527.546 545.392 435.084 542.472Z" fill="#4C0378"/>
<path d="M464.797 342.363C467.489 340.09 470.114 338.878 472.291 338.878C473.006 338.878 473.671 339.011 474.269 339.277C476.695 340.338 478.207 343.64 478.39 348.336C478.589 353.512 477.227 359.734 474.551 365.823C468.718 379.063 459.612 385.683 454.776 383.559C449.924 381.436 448.661 370.253 454.493 357.013C457.169 350.924 460.825 345.714 464.797 342.363Z" fill="#4F0F75"/>
<path d="M551.509 722.308C451.552 722.308 398.873 702 390.199 692.725C389.318 691.779 389.019 691.099 389.019 690.751V690.701C389.467 684.579 403.393 679.618 408.827 678.324L404.523 683.583C403.958 684.28 404.025 685.309 404.706 685.906C405.67 686.769 429.783 707.226 546.092 710.777C554.766 711.042 562.992 711.158 570.753 711.158C667.137 711.158 695.703 692.261 696.949 691.398C697.697 690.883 697.913 689.855 697.398 689.092L690.435 678.423C696.102 679.867 709.379 684.728 709.811 690.684V690.9C709.828 692.426 708.814 694.384 707.003 696.342C699.691 704.157 669.895 722.308 551.509 722.308Z" fill="#4A136B"/>
<path d="M552.273 717.944C453.862 717.944 402.014 697.636 393.456 688.361C392.592 687.416 392.292 686.735 392.292 686.387V686.337C392.741 680.215 406.451 675.254 411.785 673.96L407.548 679.219C406.983 679.916 407.066 680.945 407.731 681.542C408.678 682.405 432.425 702.862 546.922 706.413C555.464 706.678 563.557 706.795 571.201 706.795C666.09 706.795 694.207 687.897 695.453 687.034C696.201 686.52 696.401 685.491 695.902 684.728L689.056 674.06C694.639 675.503 707.701 680.364 708.133 686.321V686.536C708.15 688.063 707.152 690.02 705.374 691.978C698.162 699.776 668.832 717.944 552.273 717.944Z" fill="#4C0378"/>
<path d="M551.509 725.692C671.225 725.692 701.868 706.795 709.479 698.665C709.612 698.532 709.695 698.399 709.811 698.267V709.3C709.911 710.959 708.897 713.016 707.003 715.024C699.691 722.822 669.895 740.99 551.492 740.99C451.535 740.99 398.857 720.682 390.182 711.407C389.285 710.445 388.985 709.748 389.002 709.399V696.226C401.216 706.596 453.38 725.692 551.509 725.692Z" fill="#4C0378"/>
<path d="M534.741 258.626C495.49 273.093 466.408 297.781 459.146 320.147C457.95 312.764 456.355 302.908 456.338 302.775C452.948 281.671 454.776 260.716 461.49 243.76C469.217 224.265 485.187 208.685 507.704 198.714C528.51 189.505 555.331 189.788 576.07 199.427C592.04 206.86 605.916 220.532 617.316 240.06C619.526 243.843 621.62 247.808 623.697 252.105C618.313 250.098 612.098 248.687 605.102 247.941C584.396 245.734 559.419 249.533 534.741 258.626Z" fill="#35012C"/>
<path d="M546.191 707.408C445.919 704.339 414.66 688.378 408.296 684.33L422.72 666.693C432.874 679.286 502.769 683.965 550.911 683.965C598.754 683.965 668.051 679.352 678.902 666.942L693.592 689.456C686.164 693.472 648.159 710.528 546.191 707.408Z" fill="#4A136B"/>
<path d="M678.902 666.942L693.592 689.457C686.147 693.455 648.142 710.528 546.175 707.409C541.289 707.259 536.586 707.077 532.016 706.878C548.152 700.772 563.59 693.057 577.865 683.517C621.437 682.09 669.962 677.162 678.902 666.942Z" fill="#4C0378"/>
<path d="M527.546 545.393C522.976 532.833 554.783 505.872 609.489 485.696C664.228 465.521 705.973 465.388 710.642 477.932C726.047 525.682 729.769 588.116 660.157 614.529C586.274 644.062 545.36 583.935 527.546 545.393Z" fill="#35012C"/>
<path d="M673.269 355.387C676.708 355.32 685.2 356.465 688.374 368.859C689.288 372.459 689.039 375.479 687.626 377.835C686.048 380.457 683.389 381.668 682.192 382.099L673.269 355.387Z" fill="#561E77"/>
<path d="M550.911 680.58C472.806 680.58 424.847 670.625 424.847 663.491C424.847 662.96 425.611 658.248 450.854 653.536C455.141 662.18 457.95 667.92 458.05 668.103C458.332 668.684 458.93 669.049 459.562 669.049H470.314H481.065C481.647 669.049 482.195 668.75 482.495 668.252C482.81 667.755 482.844 667.141 482.594 666.626L474.634 650.118C495.772 647.795 520.815 646.518 547.321 646.401C548.351 649.404 549.232 652.059 549.897 654.166C550.113 654.813 550.678 655.278 551.359 655.328L600.914 659.509C600.947 659.509 600.964 659.509 600.997 659.509C601.014 659.509 601.03 659.525 601.063 659.525C601.08 659.525 601.113 659.509 601.13 659.509C601.296 659.509 601.462 659.475 601.629 659.426C601.645 659.426 601.645 659.426 601.662 659.426L601.728 659.409C601.745 659.392 601.778 659.392 601.795 659.392L614.989 654.481C615.421 654.315 615.77 653.984 615.953 653.552C616.136 653.121 616.136 652.64 615.937 652.208L614.441 648.857C663.813 652.955 676.974 660.222 676.974 663.524C676.991 670.641 629.031 680.58 550.911 680.58Z" fill="#561E77"/>
<path d="M550.911 676.117C472.806 676.117 424.847 667.473 424.847 661.267C424.847 660.803 425.611 656.705 450.854 652.623C455.141 660.139 457.95 665.117 458.05 665.282C458.332 665.78 458.93 666.095 459.562 666.095H470.314H481.065C481.647 666.095 482.195 665.83 482.495 665.415C482.81 664.984 482.844 664.453 482.594 664.005L474.634 649.67C495.772 647.646 520.815 646.534 547.321 646.435C548.351 649.039 549.232 651.346 549.897 653.171C550.113 653.735 550.678 654.133 551.359 654.183L600.914 657.816C600.947 657.816 600.964 657.816 600.997 657.816C601.014 657.816 601.03 657.816 601.063 657.816C601.08 657.816 601.113 657.8 601.13 657.8C601.296 657.8 601.462 657.767 601.629 657.717C601.645 657.717 601.645 657.717 601.662 657.717L601.728 657.7C601.745 657.7 601.778 657.684 601.795 657.684L614.989 653.403C615.421 653.27 615.77 652.972 615.953 652.59C616.136 652.208 616.136 651.794 615.937 651.429L614.441 648.525C663.813 652.092 676.974 658.397 676.974 661.267C676.991 667.473 629.031 676.117 550.911 676.117Z" fill="#4C0378"/>
<path d="M608.326 482.528C563.64 499.003 530.454 521.534 524.638 537.993L506.192 490.989C514.7 476.522 515.548 465.538 515.598 464.808C515.88 461.457 522.76 381.751 522.76 366.951C522.76 349.663 513.587 331.28 496.587 331.28C496.537 331.28 496.487 331.296 496.454 331.313C496.404 331.313 496.354 331.296 496.304 331.313L471.527 335.477C471.46 335.494 471.394 335.527 471.327 335.56C468.585 335.826 465.611 337.253 462.603 339.791C462.586 339.808 462.57 339.824 462.537 339.841L462.171 338.663C453.247 314.522 486.333 280.078 535.905 261.795C560.1 252.868 584.545 249.152 604.736 251.292C624.495 253.399 637.723 260.866 641.96 272.314L708.166 470.466C693.11 461.639 653.128 466.019 608.326 482.528Z" fill="#4C0378"/>
<path d="M657.382 436.486C647.195 447.105 628.616 447.038 615.986 442.841C598.637 437.084 589.099 422.433 583.349 412.644C554.434 363.451 534.043 289.071 527.729 265.03C529.457 264.3 532.332 263.122 535.905 261.795C560.1 252.868 584.545 249.152 604.736 251.292C613.527 252.221 621.022 254.229 627.004 257.166C639.567 295.492 654.158 345.416 662.949 394.361C665.175 406.705 668.15 425.287 657.382 436.486Z" fill="#691F95"/>
<path d="M585.144 617.167C589.547 619.358 594.167 621.216 599.02 622.643L612.114 651.927L601.978 655.709L585.144 617.167Z" fill="#4F0F75"/>
<path d="M496.587 332.972C513.304 332.972 521.065 352.052 521.065 366.951C521.065 381.85 513.902 464.708 513.902 464.708C513.902 464.708 512.108 493.312 478.074 519.543C444.041 545.774 414.195 523.127 414.195 523.127L418.964 465.903C418.964 465.903 433.904 478.545 448.81 473.053C463.932 467.495 459.163 386.828 459.163 386.828" stroke="#35012C" stroke-width="4" stroke-miterlimit="10" stroke-linecap="round" stroke-linejoin="round"/>
<path d="M505.095 350.442C508.618 356.863 510.313 364.744 510.313 371.713C510.313 386.612 503.151 469.47 503.151 469.47C503.151 469.47 501.555 500.064 467.522 526.295" stroke="#35012C" stroke-width="4" stroke-miterlimit="10" stroke-linecap="round" stroke-linejoin="round"/>
<path d="M452.931 356.333C447.165 369.407 447.68 382.298 454.078 385.102C460.476 387.906 470.33 379.577 476.097 366.503C481.863 353.429 481.348 340.538 474.95 337.734C468.552 334.93 458.698 343.259 452.931 356.333Z" stroke="#35012C" stroke-width="4" stroke-miterlimit="10" stroke-linecap="round" stroke-linejoin="round"/>
<path d="M471.809 337.153L496.587 332.988C503.998 334.714 507.122 348.418 503.583 363.566C500.026 378.731 491.136 389.615 483.724 387.873L459.578 385.633" stroke="#35012C" stroke-width="4" stroke-miterlimit="10" stroke-linecap="round" stroke-linejoin="round"/>
<path d="M418.964 465.903C417.768 458.453 454.493 459.349 454.493 459.349" stroke="#35012C" stroke-width="4" stroke-miterlimit="10" stroke-linecap="round" stroke-linejoin="round"/>
<path d="M504.347 490.939L525.967 546.006C520.334 530.775 557.475 503.067 608.907 484.103C660.34 465.139 706.604 462.12 712.238 477.351L643.539 271.733C634.299 246.746 585.842 241.586 535.323 260.201C484.788 278.834 451.319 314.19 460.559 339.177L461.656 342.661" stroke="#35012C" stroke-width="4" stroke-miterlimit="10" stroke-linecap="round" stroke-linejoin="round"/>
<path d="M458.764 328.409L454.659 303.041C451.519 283.513 452.582 261.612 459.911 243.129C468.452 221.543 486.084 206.429 507.006 197.171C528.277 187.763 555.68 188.095 576.768 197.901C595.098 206.429 608.724 222.041 618.762 239.213C621.504 243.925 624.013 248.77 626.323 253.698" stroke="#35012C" stroke-width="4" stroke-miterlimit="10" stroke-linecap="round" stroke-linejoin="round"/>
<path d="M671.507 353.844C671.507 353.844 685.615 351.272 690.019 368.444C693.31 381.253 681.96 383.941 681.96 383.941" stroke="#35012C" stroke-width="4" stroke-miterlimit="10" stroke-linecap="round" stroke-linejoin="round"/>
<path d="M430.314 531.472C430.314 531.472 432.707 542.804 423.75 545.177C414.793 547.566 410.024 549.341 423.75 574.975C437.477 600.609 470.314 667.373 470.314 667.373H481.065L450.621 604.193C450.621 604.193 438.091 579.156 466.741 576.767C495.39 574.378 520.467 593.458 528.227 599.414C535.988 605.371 551.509 653.652 551.509 653.652L601.064 657.816L582.551 614.894" stroke="#35012C" stroke-width="4" stroke-miterlimit="10" stroke-linecap="round" stroke-linejoin="round"/>
<path d="M421.357 529.083C421.357 529.083 421.956 542.788 412.998 545.177C404.041 547.566 399.272 549.341 412.998 574.975C426.725 600.609 459.562 667.373 459.562 667.373H470.314" stroke="#35012C" stroke-width="4" stroke-miterlimit="10" stroke-linecap="round" stroke-linejoin="round"/>
<path d="M514.501 518.348C514.501 518.348 488.826 514.184 487.031 526.096C485.237 538.026 525.967 546.006 525.967 546.006C546.523 590.488 589.016 644.775 660.772 616.105C733.01 588.679 727.293 523.973 712.237 477.351" stroke="#35012C" stroke-width="4" stroke-miterlimit="10" stroke-linecap="round" stroke-linejoin="round"/>
<path d="M548.518 644.726C519.835 644.809 493.462 646.269 472.374 648.691" stroke="#35012C" stroke-width="4" stroke-miterlimit="10" stroke-linecap="round" stroke-linejoin="round"/>
<path d="M451.768 651.661C433.87 654.896 423.152 659.011 423.152 663.507C423.152 673.877 480.351 682.289 550.911 682.289C621.47 682.289 678.669 673.877 678.669 663.507C678.669 656.356 652.263 650.151 612.413 646.982" stroke="#35012C" stroke-width="4" stroke-miterlimit="10" stroke-linecap="round" stroke-linejoin="round"/>
<path d="M678.669 663.507L695.985 690.037C695.985 690.037 663.148 712.684 546.125 709.117C429.101 705.534 405.819 684.678 405.819 684.678L423.135 663.524" stroke="#35012C" stroke-width="4" stroke-miterlimit="10" stroke-linecap="round" stroke-linejoin="round"/>
<path d="M410.605 676.316C408.811 676.316 387.922 681.675 387.324 690.618C386.725 699.561 441.648 724 551.509 724C688.225 724 712.105 699.561 711.506 690.618C710.908 681.675 690.019 676.316 688.225 676.316" stroke="#35012C" stroke-width="4" stroke-miterlimit="10" stroke-linecap="round" stroke-linejoin="round"/>
<path d="M387.324 690.618V709.3C386.725 718.242 441.648 742.682 551.509 742.682C688.225 742.682 712.105 718.242 711.506 709.3V690.618" stroke="#35012C" stroke-width="4" stroke-miterlimit="10" stroke-linecap="round" stroke-linejoin="round"/>
<path d="M601.064 657.833L614.391 652.872L600.266 621.282" stroke="#35012C" stroke-width="4" stroke-miterlimit="10" stroke-linecap="round" stroke-linejoin="round"/>
<g opacity="0.35" filter="url(#filter1_f_9_5965)">
<ellipse cx="553" cy="759.5" rx="169" ry="28.5" fill="#4F0147"/>
</g>
<path d="M349.287 297.421L327.432 313.025L317.364 337.016L301.92 316.887L277.135 308.357L298.989 292.753L309.058 268.762L324.501 288.891L349.287 297.421Z" fill="#4C0378"/>
<path d="M759 436.414L752.072 444.477L750.586 455L742.523 448.072L732 446.586L738.928 438.523L740.414 428L748.477 434.928L759 436.414Z" fill="#4F0147"/>
<path d="M732.951 287.904L718.367 284.06L728.563 295.175L716.565 286.029L721.713 300.193L714.138 287.168L713.484 302.218L711.478 287.285L705.096 300.951L708.94 286.367L697.829 296.543L706.971 284.565L692.807 289.713L705.832 282.139L690.782 281.484L705.715 279.478L692.049 273.096L706.633 276.94L696.437 265.825L708.435 274.971L703.287 260.807L710.862 273.832L711.52 258.762L713.526 273.695L719.904 260.049L716.064 274.613L727.175 264.437L718.033 276.415L732.197 271.267L719.168 278.862L734.238 279.52L719.285 281.522L732.951 287.904Z" fill="#E9BD10"/>
<path d="M377 630.932L352.145 629.385L372.224 644.116L349.858 633.152L362.739 654.441L346.293 635.775L350.06 660.361L342.021 636.818L336.068 661L337.615 636.145L322.884 656.19L333.848 633.858L312.559 646.739L331.225 630.293L306.605 634.06L330.182 626.021L306 620.068L330.855 621.615L310.776 606.884L333.108 617.848L320.227 596.559L336.707 615.225L332.94 590.605L340.979 614.149L346.932 590L345.385 614.821L360.116 594.776L349.152 617.108L370.441 604.227L351.775 620.707L376.361 616.94L352.818 624.979L377 630.932Z" fill="#EDA2DC"/>
<path d="M388.044 185.28C378.629 168.847 376.888 152.157 436.043 118.268C483.69 90.9721 498.253 100.317 507.667 116.751C517.082 133.184 516.707 151.087 470.13 177.77C458.61 184.369 448.761 189.232 440.261 192.697C442.491 199.805 449.226 222.279 446.58 227.277C444.185 231.811 426.15 209.945 417.622 199.205C401.417 201.264 393.439 194.699 388.044 185.28Z" fill="#FCFCFC"/>
<path d="M483.591 139.25C485.172 142.01 488.829 142.894 491.748 141.221C494.667 139.549 495.755 135.947 494.174 133.187C492.592 130.427 488.936 129.544 486.016 131.216C483.085 132.896 482.01 136.49 483.591 139.25Z" fill="#35012C"/>
<path d="M462.218 151.494C463.233 153.265 465.57 153.82 467.431 152.754C469.304 151.681 469.989 149.379 468.981 147.619C467.967 145.848 465.629 145.293 463.768 146.36C461.9 147.414 461.203 149.723 462.218 151.494Z" fill="#35012C"/>
<path d="M439.617 164.442C440.427 165.856 442.302 166.31 443.798 165.452C445.295 164.595 445.852 162.748 445.042 161.334C444.232 159.919 442.356 159.466 440.86 160.323C439.364 161.181 438.806 163.027 439.617 164.442Z" fill="#35012C"/>
</g>
<defs>
<filter id="filter0_f_9_5965" x="90.1018" y="60.6714" width="811.274" height="818.559" filterUnits="userSpaceOnUse" color-interpolation-filters="sRGB">
<feFlood flood-opacity="0" result="BackgroundImageFix"/>
<feBlend mode="normal" in="SourceGraphic" in2="BackgroundImageFix" result="shape"/>
<feGaussianBlur stdDeviation="63" result="effect1_foregroundBlur_9_5965"/>
</filter>
<filter id="filter1_f_9_5965" x="264" y="611" width="578" height="297" filterUnits="userSpaceOnUse" color-interpolation-filters="sRGB">
<feFlood flood-opacity="0" result="BackgroundImageFix"/>
<feBlend mode="normal" in="SourceGraphic" in2="BackgroundImageFix" result="shape"/>
<feGaussianBlur stdDeviation="60" result="effect1_foregroundBlur_9_5965"/>
</filter>
<linearGradient id="paint0_linear_9_5965" x1="199.969" y1="389.7" x2="452.643" y2="839.87" gradientUnits="userSpaceOnUse">
<stop stop-color="#35012C"/>
<stop offset="0.192708" stop-color="#0F555C"/>
<stop offset="0.411458" stop-color="#691F95"/>
<stop offset="0.65625" stop-color="#4C0378"/>
<stop offset="0.869792" stop-color="#840D75"/>
<stop offset="1" stop-color="#197199"/>
</linearGradient>
<linearGradient id="paint1_linear_9_5965" x1="493.55" y1="508.801" x2="652.389" y2="134.952" gradientUnits="userSpaceOnUse">
<stop stop-color="#EDA2DC"/>
<stop offset="0.192708" stop-color="#008B9A"/>
<stop offset="0.411458" stop-color="#691F95"/>
<stop offset="0.65625" stop-color="#4C0378"/>
<stop offset="0.869792" stop-color="#840D75"/>
<stop offset="1" stop-color="#E9BD10"/>
</linearGradient>
<clipPath id="clip0_9_5965">
<rect width="1098" height="889" fill="white"/>
</clipPath>
</defs>
</svg>
