<svg width="305" height="293" viewBox="0 0 305 293" fill="none" xmlns="http://www.w3.org/2000/svg">
<g clip-path="url(#clip0_18_732)">
<path d="M91.9324 232.793C93.3581 221.444 94.2633 207.074 89.794 206.079C85.2907 205.083 77.7777 213.75 72.5389 220.765C66.2366 219.136 58.4634 218.219 48.7214 218.219C6.31363 218.219 0 234.75 0 255.139C0 275.529 7.42248 292.059 48.7214 292.059C93.0979 292.059 97.4427 275.529 97.4427 255.139C97.4427 246.721 96.2321 238.993 91.9324 232.793Z" fill="#FCFCFC"/>
<path d="M35.0193 276.026C33.9783 276.026 33.0845 275.676 32.3264 274.963C31.5683 274.261 31.1836 273.39 31.1836 272.36C31.1836 271.331 31.5683 270.46 32.3264 269.735C33.0845 269.011 33.9783 268.649 35.0193 268.649C36.0942 268.649 36.9994 269.011 37.7348 269.735C38.4703 270.46 38.8437 271.331 38.8437 272.36C38.8437 273.39 38.459 274.25 37.7009 274.963C36.9541 275.676 36.0603 276.026 35.0193 276.026ZM35.0193 266.228C34.2046 266.228 33.5258 265.956 32.994 265.402C32.4622 264.859 32.1906 264.225 32.1906 263.524V237.398C32.1906 236.617 32.4622 235.961 32.994 235.44C33.5258 234.909 34.2046 234.648 35.0193 234.648C35.834 234.648 36.5128 234.909 37.0446 235.44C37.5764 235.972 37.848 236.628 37.848 237.398V263.524C37.848 264.27 37.5651 264.904 36.9881 265.436C36.411 265.956 35.7548 266.228 35.0193 266.228Z" fill="#4C0378"/>
<path d="M59.6176 266.228C58.803 266.228 58.1241 265.968 57.5923 265.458C57.0605 264.949 56.7889 264.304 56.7889 263.524C56.7889 262.143 57.1623 260.638 57.8978 258.986C58.6333 257.346 59.7874 255.886 61.3375 254.619C62.3784 253.77 63.3289 252.933 64.2001 252.096C65.0713 251.27 65.7729 250.308 66.3047 249.233C66.8364 248.158 67.108 246.846 67.108 245.284C67.108 244.153 66.8251 243.089 66.2707 242.105C65.7163 241.12 64.9243 240.317 63.9172 239.695C62.8989 239.072 61.6543 238.767 60.1721 238.767C58.3617 238.767 56.8568 239.084 55.6801 239.717C54.492 240.351 53.6095 241.234 53.0438 242.365C52.4667 243.496 52.1838 244.82 52.1838 246.336C52.1838 247.117 51.9236 247.762 51.4031 248.271C50.8826 248.78 50.2037 249.041 49.3438 249.041C48.5292 249.041 47.8503 248.78 47.3185 248.271C46.7867 247.762 46.5151 247.117 46.5151 246.336C46.5151 243.87 47.0809 241.697 48.2124 239.819C49.3438 237.952 50.9279 236.47 52.9872 235.395C55.0465 234.32 57.4339 233.777 60.1721 233.777C62.5821 233.777 64.7093 234.264 66.5875 235.237C68.4545 236.21 69.9367 237.556 71.0229 239.265C72.1091 240.973 72.6635 242.987 72.6635 245.273C72.6635 247.253 72.3354 248.961 71.6679 250.41C71.0003 251.858 70.0951 253.159 68.941 254.302C67.7982 255.456 66.4744 256.588 65.0035 257.719C64.0417 258.466 63.3741 259.428 63.0007 260.604C62.6274 261.792 62.4463 262.754 62.4463 263.49C62.4463 264.27 62.1861 264.915 61.6656 265.424C61.1451 265.968 60.4662 266.228 59.6176 266.228ZM59.6176 276.026C58.5767 276.026 57.6828 275.664 56.9247 274.94C56.1666 274.216 55.7819 273.356 55.7819 272.372C55.7819 271.342 56.1666 270.471 56.9247 269.747C57.6828 269.023 58.5767 268.66 59.6176 268.66C60.6925 268.66 61.609 269.023 62.3671 269.747C63.1252 270.471 63.5099 271.342 63.5099 272.372C63.5099 273.367 63.1252 274.216 62.3671 274.94C61.5977 275.664 60.6812 276.026 59.6176 276.026Z" fill="#4C0378"/>
<path d="M210.141 12.492C177.716 19.3908 156.521 53.5411 162.8 88.7461C156.521 53.5411 125.139 30.5773 92.7137 37.4761C60.2889 44.3749 39.0936 78.5252 45.373 113.73C55.0951 168.236 110.478 211.16 187.738 228.556C253.392 180.772 289.953 118.287 280.231 63.7804C273.968 28.5529 242.585 5.58916 210.141 12.492Z" fill="#A821E8"/>
<path d="M139.797 145.873C155.892 135.065 160.725 113.803 150.591 98.3818C140.457 82.9609 119.195 79.2214 103.1 90.0294C87.0043 100.837 82.1714 122.1 92.305 137.521C102.439 152.942 123.701 156.681 139.797 145.873Z" fill="#E8E6DF"/>
<path d="M229.254 128.442C245.349 117.634 250.182 96.3713 240.048 80.9504C229.915 65.5295 208.652 61.79 192.557 72.598C176.462 83.4059 171.629 104.669 181.763 120.089C191.896 135.51 213.159 139.25 229.254 128.442Z" fill="#E8E6DF"/>
<path d="M178.174 171.749C167.121 174.091 156.612 167.432 154.724 156.892C154.45 155.365 155.525 153.855 157.126 153.516C158.726 153.177 160.263 154.134 160.536 155.661C161.874 163.13 169.349 167.865 177.181 166.206C185.013 164.547 190.306 157.106 188.968 149.637C188.695 148.11 189.769 146.6 191.389 146.257C192.99 145.918 194.507 146.879 194.781 148.406C196.665 158.928 189.226 169.407 178.174 171.749Z" fill="#010101"/>
<path d="M114.915 85.1399L126.817 151.58C146.035 147.489 158.97 129.332 155.683 110.984C152.396 92.636 134.159 81.0825 114.915 85.1399Z" fill="#010101"/>
<path d="M204.372 67.713L216.274 134.153C235.492 130.062 248.427 111.905 245.14 93.5572C241.853 75.2091 223.597 63.6597 204.372 67.713Z" fill="#010101"/>
</g>
<defs>
<clipPath id="clip0_18_732">
<rect width="305" height="293" fill="white"/>
</clipPath>
</defs>
</svg>
