<svg width="57" height="41" viewBox="0 0 57 41" fill="none" xmlns="http://www.w3.org/2000/svg">
<g clip-path="url(#clip0_5_1939)">
<g clip-path="url(#clip1_5_1939)">
<g clip-path="url(#clip2_5_1939)">
<path d="M13.2671 40.9416H1.06449C0.476761 40.9416 0 40.4743 0 39.8981C0 39.3219 0.476761 38.8545 1.06449 38.8545H13.2671C13.8548 38.8545 14.3316 39.3219 14.3316 39.8981C14.3316 40.4743 13.8548 40.9416 13.2671 40.9416Z" fill="#FCFCFC"/>
<path d="M13.2671 37.4885H1.06449C0.476761 37.4885 0 37.0211 0 36.4449C0 35.8688 0.476761 35.4014 1.06449 35.4014H13.2671C13.8548 35.4014 14.3316 35.8688 14.3316 36.4449C14.3316 37.0211 13.8548 37.4885 13.2671 37.4885Z" fill="#FCFCFC"/>
<path d="M13.2671 34.0315H1.06449C0.476761 34.0315 0 33.5641 0 32.9879C0 32.4117 0.476761 31.9443 1.06449 31.9443H13.2671C13.8548 31.9443 14.3316 32.4117 14.3316 32.9879C14.3316 33.5641 13.8548 34.0315 13.2671 34.0315Z" fill="#FCFCFC"/>
<path d="M13.2671 30.5745H1.06449C0.476761 30.5745 0 30.1071 0 29.5309C0 28.9547 0.476761 28.4873 1.06449 28.4873H13.2671C13.8548 28.4873 14.3316 28.9547 14.3316 29.5309C14.3316 30.1071 13.8548 30.5745 13.2671 30.5745Z" fill="#FCFCFC"/>
<path d="M13.2671 27.1174H1.06449C0.476761 27.1174 0 26.65 0 26.0738C0 25.4977 0.476761 25.0303 1.06449 25.0303H13.2671C13.8548 25.0303 14.3316 25.4977 14.3316 26.0738C14.3316 26.65 13.8548 27.1174 13.2671 27.1174Z" fill="#FCFCFC"/>
<path opacity="0.34" d="M13.2671 23.6604H1.06449C0.476761 23.6604 0 23.193 0 22.6168C0 22.0406 0.476761 21.5732 1.06449 21.5732H13.2671C13.8548 21.5732 14.3316 22.0406 14.3316 22.6168C14.3316 23.193 13.8548 23.6604 13.2671 23.6604Z" fill="#FCFCFC"/>
<path opacity="0.34" d="M13.2671 20.2073H1.06449C0.476761 20.2073 0 19.7399 0 19.1637C0 18.5875 0.476761 18.1201 1.06449 18.1201H13.2671C13.8548 18.1201 14.3316 18.5875 14.3316 19.1637C14.3316 19.7399 13.8548 20.2073 13.2671 20.2073Z" fill="#FCFCFC"/>
</g>
<g clip-path="url(#clip3_5_1939)">
<path d="M31.1616 40.9416H18.959C18.3713 40.9416 17.8945 40.4743 17.8945 39.8981C17.8945 39.3219 18.3713 38.8545 18.959 38.8545H31.1616C31.7494 38.8545 32.2261 39.3219 32.2261 39.8981C32.2261 40.4743 31.7494 40.9416 31.1616 40.9416Z" fill="#FCFCFC"/>
<path d="M31.1616 37.4885H18.959C18.3713 37.4885 17.8945 37.0211 17.8945 36.4449C17.8945 35.8688 18.3713 35.4014 18.959 35.4014H31.1616C31.7494 35.4014 32.2261 35.8688 32.2261 36.4449C32.2261 37.0211 31.7494 37.4885 31.1616 37.4885Z" fill="#FCFCFC"/>
<path d="M31.1616 34.0315H18.959C18.3713 34.0315 17.8945 33.5641 17.8945 32.9879C17.8945 32.4117 18.3713 31.9443 18.959 31.9443H31.1616C31.7494 31.9443 32.2261 32.4117 32.2261 32.9879C32.2261 33.5641 31.7494 34.0315 31.1616 34.0315Z" fill="#FCFCFC"/>
<path d="M31.1616 30.5745H18.959C18.3713 30.5745 17.8945 30.1071 17.8945 29.5309C17.8945 28.9547 18.3713 28.4873 18.959 28.4873H31.1616C31.7494 28.4873 32.2261 28.9547 32.2261 29.5309C32.2261 30.1071 31.7494 30.5745 31.1616 30.5745Z" fill="#FCFCFC"/>
<path d="M31.1616 27.1174H18.959C18.3713 27.1174 17.8945 26.65 17.8945 26.0738C17.8945 25.4977 18.3713 25.0303 18.959 25.0303H31.1616C31.7494 25.0303 32.2261 25.4977 32.2261 26.0738C32.2261 26.65 31.7494 27.1174 31.1616 27.1174Z" fill="#FCFCFC"/>
<path d="M31.1616 23.6604H18.959C18.3713 23.6604 17.8945 23.193 17.8945 22.6168C17.8945 22.0406 18.3713 21.5732 18.959 21.5732H31.1616C31.7494 21.5732 32.2261 22.0406 32.2261 22.6168C32.2261 23.193 31.7494 23.6604 31.1616 23.6604Z" fill="#FCFCFC"/>
<path d="M31.1616 20.2073H18.959C18.3713 20.2073 17.8945 19.7399 17.8945 19.1637C17.8945 18.5875 18.3713 18.1201 18.959 18.1201H31.1616C31.7494 18.1201 32.2261 18.5875 32.2261 19.1637C32.2261 19.7399 31.7494 20.2073 31.1616 20.2073Z" fill="#FCFCFC"/>
<path d="M31.1616 16.7502H18.959C18.3713 16.7502 17.8945 16.2828 17.8945 15.7067C17.8945 15.1305 18.3713 14.6631 18.959 14.6631H31.1616C31.7494 14.6631 32.2261 15.1305 32.2261 15.7067C32.2261 16.2828 31.7494 16.7502 31.1616 16.7502Z" fill="#FCFCFC"/>
<path d="M31.1616 13.293H18.959C18.3713 13.293 17.8945 12.8256 17.8945 12.2494C17.8945 11.6732 18.3713 11.2058 18.959 11.2058H31.1616C31.7494 11.2058 32.2261 11.6732 32.2261 12.2494C32.2261 12.8256 31.7494 13.293 31.1616 13.293Z" fill="#FCFCFC"/>
<path opacity="0.34" d="M31.1616 9.83593H18.959C18.3713 9.83593 17.8945 9.36853 17.8945 8.79235C17.8945 8.21617 18.3713 7.74878 18.959 7.74878H31.1616C31.7494 7.74878 32.2261 8.21617 32.2261 8.79235C32.2261 9.36853 31.7494 9.83593 31.1616 9.83593Z" fill="#FCFCFC"/>
<path opacity="0.34" d="M31.1616 6.3789H18.959C18.3713 6.3789 17.8945 5.9115 17.8945 5.33532C17.8945 4.75914 18.3713 4.29175 18.959 4.29175H31.1616C31.7494 4.29175 32.2261 4.75914 32.2261 5.33532C32.2261 5.9115 31.7494 6.3789 31.1616 6.3789Z" fill="#FCFCFC"/>
</g>
<g clip-path="url(#clip4_5_1939)">
<path d="M49.0572 40.9416H36.8545C36.2668 40.9416 35.79 40.4743 35.79 39.8981C35.79 39.3219 36.2668 38.8545 36.8545 38.8545H49.0572C49.6449 38.8545 50.1217 39.3219 50.1217 39.8981C50.1217 40.4743 49.6449 40.9416 49.0572 40.9416Z" fill="#FCFCFC"/>
<path d="M49.0572 37.4885H36.8545C36.2668 37.4885 35.79 37.0211 35.79 36.4449C35.79 35.8688 36.2668 35.4014 36.8545 35.4014H49.0572C49.6449 35.4014 50.1217 35.8688 50.1217 36.4449C50.1217 37.0211 49.6449 37.4885 49.0572 37.4885Z" fill="#FCFCFC"/>
<path d="M49.0572 34.0315H36.8545C36.2668 34.0315 35.79 33.5641 35.79 32.9879C35.79 32.4117 36.2668 31.9443 36.8545 31.9443H49.0572C49.6449 31.9443 50.1217 32.4117 50.1217 32.9879C50.1217 33.5641 49.6449 34.0315 49.0572 34.0315Z" fill="#FCFCFC"/>
<path opacity="0.34" d="M49.0572 30.5745H36.8545C36.2668 30.5745 35.79 30.1071 35.79 29.5309C35.79 28.9547 36.2668 28.4873 36.8545 28.4873H49.0572C49.6449 28.4873 50.1217 28.9547 50.1217 29.5309C50.1217 30.1071 49.6449 30.5745 49.0572 30.5745Z" fill="#FCFCFC"/>
<path opacity="0.34" d="M49.0572 27.1174H36.8545C36.2668 27.1174 35.79 26.65 35.79 26.0738C35.79 25.4977 36.2668 25.0303 36.8545 25.0303H49.0572C49.6449 25.0303 50.1217 25.4977 50.1217 26.0738C50.1217 26.65 49.6449 27.1174 49.0572 27.1174Z" fill="#FCFCFC"/>
</g>
</g>
<path d="M56.9989 11.4627L50.4486 13.1869L45.9191 17.9744L44.0935 11.7881L39.0244 7.5102L45.5747 5.78604L50.1042 0.998535L51.9297 7.18489L56.9989 11.4627Z" fill="#3A015C"/>
<path d="M12.3968 3.76331L9.23621 7.36948L8.55805 12.0756L4.87959 8.97715L0.0791016 8.31232L3.2397 4.70615L3.91785 0L7.59631 3.09849L12.3968 3.76331Z" fill="#4F0147"/>
</g>
<defs>
<clipPath id="clip0_5_1939">
<rect width="56.9986" height="40.9418" fill="white"/>
</clipPath>
<clipPath id="clip1_5_1939">
<rect width="50.1216" height="36.65" fill="white" transform="translate(0 4.29175)"/>
</clipPath>
<clipPath id="clip2_5_1939">
<rect width="14.3316" height="22.8216" fill="white" transform="translate(0 18.1201)"/>
</clipPath>
<clipPath id="clip3_5_1939">
<rect width="14.3316" height="36.65" fill="white" transform="translate(17.8945 4.29175)"/>
</clipPath>
<clipPath id="clip4_5_1939">
<rect width="14.3316" height="15.9115" fill="white" transform="translate(35.79 25.0303)"/>
</clipPath>
</defs>
</svg>
