<svg width="246" height="315" viewBox="0 0 246 315" fill="none" xmlns="http://www.w3.org/2000/svg">
<g opacity="0.65" filter="url(#filter0_f_36_192)">
<ellipse cx="137" cy="286" rx="86" ry="6" fill="#4F0147"/>
</g>
<g clip-path="url(#clip0_36_192)">
<path d="M110.177 3.23196L122.887 29.1638L145.586 11.3225C149.358 8.35636 154.889 11.0237 154.923 15.8161L155.133 44.703L183.319 38.4829C187.998 37.4536 191.825 42.246 189.779 46.5846L177.445 72.6935L205.542 79.3231C210.21 80.4299 211.582 86.4176 207.843 89.4281L185.409 107.601L207.843 125.775C211.571 128.796 210.21 134.784 205.542 135.88L177.445 142.509L189.779 168.618C191.825 172.957 187.998 177.76 183.319 176.72L155.133 170.5L154.923 199.387C154.889 204.19 149.358 206.846 145.586 203.88L122.898 186.05L110.177 211.982C108.064 216.287 101.925 216.287 99.812 211.982L87.1018 186.05L64.4027 203.891C60.6305 206.858 55.0996 204.19 55.0664 199.398L54.8562 170.511L26.6704 176.731C21.9912 177.76 18.1637 172.968 20.2102 168.629L32.5443 142.52L4.44691 135.891C-0.22123 134.784 -1.58185 128.796 2.14603 125.786L24.5797 107.612L2.14603 89.4391C-1.58185 86.4176 -0.22123 80.4299 4.44691 79.3342L32.5443 72.7046L20.2102 46.5846C18.1637 42.246 21.9912 37.4426 26.6704 38.4829L54.8562 44.703L55.0664 15.8161C55.0996 11.0126 60.6305 8.35636 64.4027 11.3225L87.1018 29.1638L99.823 3.23196C101.925 -1.07341 108.064 -1.07341 110.177 3.23196Z" fill="#4C0378"/>
<path d="M144.015 268.439H131.681L125.52 245.816H137.843L144.015 268.439Z" fill="#2F4BD4"/>
<path d="M142.102 261.411H129.768L131.681 268.439H144.015L142.102 261.411Z" fill="#22379C"/>
<path d="M204.425 284H71.2721V281.189C71.2721 278.001 73.8606 275.411 77.0465 275.411H198.65C201.836 275.411 204.425 278.001 204.425 281.189V284Z" fill="#2F4BD4"/>
<path d="M161.405 275.422H114.292L115.487 272.932C117.987 267.708 123.274 264.376 129.06 264.376H146.626C152.423 264.376 157.699 267.708 160.199 272.932L161.405 275.422Z" fill="#2F4BD4"/>
<path d="M160.365 273.242H115.332L114.292 275.423H161.405L160.365 273.242Z" fill="#22379C"/>
<path d="M137.843 245.816H125.509L127.677 253.752C128.894 253.63 130.122 253.464 131.339 253.242C134.071 252.744 136.726 252.003 139.27 251.04L137.843 245.816Z" fill="#22379C"/>
<path d="M93.7611 54.7634C88.1858 55.7706 82.9867 57.4197 78.3186 59.5447C69.8894 63.3852 65.177 72.5051 66.8363 81.625L78.4956 145.896L140.066 134.706L128.407 70.4354C126.748 61.3155 119.137 54.4314 109.9 53.8005C104.779 53.4685 99.3252 53.7562 93.7611 54.7634Z" fill="white"/>
<path d="M102.854 54.6198C102.201 54.7415 101.77 55.3613 101.881 56.0254C102.002 56.6784 102.622 57.11 103.285 56.9994C103.938 56.8776 104.369 56.2578 104.259 55.5937C104.126 54.9407 103.507 54.498 102.854 54.6198Z" fill="#E6C77F"/>
<path d="M114.845 120.706C114.192 120.827 113.761 121.447 113.872 122.111C113.993 122.764 114.613 123.196 115.277 123.085C115.929 122.964 116.361 122.344 116.25 121.68C116.128 121.027 115.498 120.584 114.845 120.706Z" fill="#E6C77F"/>
<path d="M116.56 130.146C115.907 130.268 115.476 130.888 115.586 131.552C115.708 132.205 116.327 132.636 116.991 132.526C117.644 132.404 118.075 131.784 117.965 131.12C117.832 130.467 117.212 130.024 116.56 130.146Z" fill="#E6C77F"/>
<path d="M108.363 68.2443C107.71 68.3661 107.279 68.9859 107.389 69.65C107.511 70.303 108.131 70.7346 108.794 70.6239C109.447 70.5022 109.878 69.8824 109.768 69.2183C109.646 68.5653 109.015 68.1337 108.363 68.2443Z" fill="#E6C77F"/>
<path d="M106.648 58.8034C105.996 58.9252 105.564 59.545 105.675 60.209C105.796 60.862 106.416 61.2937 107.08 61.183C107.732 61.0613 108.164 60.4415 108.053 59.7774C107.931 59.1244 107.301 58.6928 106.648 58.8034Z" fill="#E6C77F"/>
<path d="M106.272 73.5011C105.619 73.6229 105.188 74.2427 105.299 74.9067C105.42 75.5597 106.04 75.9914 106.704 75.8807C107.356 75.7589 107.788 75.1392 107.677 74.4751C107.555 73.8221 106.925 73.3794 106.272 73.5011Z" fill="#E6C77F"/>
<path d="M110.077 77.6848C109.425 77.8065 108.993 78.4263 109.104 79.0904C109.226 79.7434 109.845 80.175 110.509 80.0644C111.162 79.9426 111.593 79.3228 111.482 78.6587C111.361 78.0057 110.73 77.5741 110.077 77.6848Z" fill="#E6C77F"/>
<path d="M104.558 64.0607C103.905 64.1824 103.473 64.8022 103.584 65.4663C103.706 66.1193 104.325 66.5509 104.989 66.4403C105.642 66.3185 106.073 65.6987 105.962 65.0347C105.841 64.3817 105.221 63.9389 104.558 64.0607Z" fill="#E6C77F"/>
<path d="M111.416 101.824C110.763 101.946 110.332 102.565 110.442 103.229C110.564 103.882 111.184 104.314 111.847 104.203C112.5 104.082 112.931 103.462 112.821 102.798C112.699 102.145 112.069 101.702 111.416 101.824Z" fill="#E6C77F"/>
<path d="M109.701 92.383C109.049 92.5047 108.617 93.1245 108.728 93.7886C108.85 94.4416 109.469 94.8732 110.133 94.7625C110.785 94.6408 111.217 94.021 111.106 93.3569C110.985 92.7039 110.354 92.2612 109.701 92.383Z" fill="#E6C77F"/>
<path d="M107.987 82.942C107.334 83.0638 106.903 83.6836 107.013 84.3476C107.135 85.0006 107.754 85.4323 108.418 85.3216C109.071 85.1999 109.502 84.5801 109.392 83.916C109.27 83.263 108.639 82.8203 107.987 82.942Z" fill="#E6C77F"/>
<path d="M113.131 111.265C112.478 111.387 112.046 112.006 112.157 112.67C112.279 113.323 112.898 113.755 113.562 113.644C114.215 113.523 114.646 112.903 114.535 112.239C114.414 111.586 113.783 111.143 113.131 111.265Z" fill="#E6C77F"/>
<path d="M112.157 72.439C111.504 72.5607 111.073 73.1805 111.184 73.8446C111.305 74.4976 111.925 74.9293 112.588 74.8186C113.241 74.6968 113.673 74.077 113.562 73.413C113.44 72.7489 112.821 72.3172 112.157 72.439Z" fill="#E6C77F"/>
<path d="M110.442 62.9981C109.79 63.1198 109.358 63.7396 109.469 64.4037C109.591 65.0567 110.21 65.4883 110.874 65.3777C111.527 65.2559 111.958 64.6361 111.847 63.972C111.726 63.308 111.106 62.8763 110.442 62.9981Z" fill="#E6C77F"/>
<path d="M111.792 87.1257C111.139 87.2474 110.708 87.8672 110.819 88.5313C110.94 89.1843 111.56 89.616 112.223 89.5053C112.876 89.3835 113.308 88.7637 113.197 88.0997C113.075 87.4467 112.445 87.015 111.792 87.1257Z" fill="#E6C77F"/>
<path d="M109.69 53.8117C109.226 53.7785 108.739 53.7785 108.263 53.7563C107.887 54.022 107.677 54.4758 107.765 54.9517C107.887 55.6047 108.507 56.0363 109.17 55.9256C109.823 55.8039 110.254 55.1841 110.144 54.52C110.077 54.2212 109.912 53.9777 109.69 53.8117Z" fill="#E6C77F"/>
<path d="M113.872 81.8794C113.219 82.0012 112.788 82.621 112.898 83.285C113.02 83.938 113.639 84.3697 114.303 84.259C114.956 84.1373 115.387 83.5175 115.277 82.8534C115.155 82.1893 114.524 81.7577 113.872 81.8794Z" fill="#E6C77F"/>
<path d="M115.586 91.3203C114.934 91.4421 114.502 92.0619 114.613 92.726C114.735 93.379 115.354 93.8106 116.018 93.6999C116.67 93.5782 117.102 92.9584 116.991 92.2943C116.869 91.6302 116.239 91.1986 115.586 91.3203Z" fill="#E6C77F"/>
<path d="M113.507 96.5666C112.854 96.6884 112.423 97.3082 112.533 97.9722C112.655 98.6252 113.274 99.0569 113.938 98.9462C114.591 98.8244 115.022 98.2046 114.911 97.5406C114.779 96.8876 114.159 96.4559 113.507 96.5666Z" fill="#E6C77F"/>
<path d="M115.21 106.008C114.558 106.129 114.126 106.749 114.237 107.413C114.358 108.066 114.978 108.498 115.642 108.387C116.294 108.265 116.726 107.646 116.615 106.982C116.493 106.329 115.874 105.897 115.21 106.008Z" fill="#E6C77F"/>
<path d="M116.925 115.448C116.272 115.57 115.841 116.19 115.951 116.854C116.073 117.507 116.692 117.939 117.356 117.828C118.009 117.706 118.44 117.086 118.33 116.422C118.208 115.769 117.577 115.338 116.925 115.448Z" fill="#E6C77F"/>
<path d="M118.639 124.889C117.987 125.011 117.555 125.631 117.666 126.295C117.788 126.948 118.407 127.38 119.071 127.269C119.723 127.147 120.155 126.527 120.044 125.863C119.923 125.21 119.292 124.779 118.639 124.889Z" fill="#E6C77F"/>
<path d="M120.354 134.33C119.701 134.452 119.27 135.071 119.381 135.735C119.502 136.388 120.122 136.82 120.785 136.709C121.438 136.588 121.869 135.968 121.759 135.304C121.637 134.651 121.007 134.219 120.354 134.33Z" fill="#E6C77F"/>
<path d="M103.816 93.4566C103.164 93.5783 102.732 94.1981 102.843 94.8622C102.965 95.5152 103.584 95.9468 104.248 95.8361C104.9 95.7144 105.332 95.0946 105.221 94.4305C105.1 93.7665 104.469 93.3348 103.816 93.4566Z" fill="#E6C77F"/>
<path d="M100.387 74.5747C99.7345 74.6965 99.3031 75.3163 99.4137 75.9804C99.5354 76.6334 100.155 77.065 100.819 76.9543C101.471 76.8326 101.903 76.2128 101.792 75.5487C101.67 74.8846 101.04 74.453 100.387 74.5747Z" fill="#E6C77F"/>
<path d="M102.102 84.0157C101.449 84.1374 101.018 84.7572 101.128 85.4213C101.25 86.0743 101.869 86.5059 102.533 86.3952C103.186 86.2735 103.617 85.6537 103.507 84.9896C103.385 84.3256 102.754 83.8939 102.102 84.0157Z" fill="#E6C77F"/>
<path d="M103.44 108.155C102.788 108.277 102.356 108.896 102.467 109.56C102.588 110.213 103.208 110.645 103.872 110.534C104.524 110.413 104.956 109.793 104.845 109.129C104.723 108.465 104.093 108.033 103.44 108.155Z" fill="#E6C77F"/>
<path d="M107.246 112.338C106.593 112.46 106.162 113.08 106.272 113.744C106.394 114.397 107.013 114.829 107.677 114.718C108.33 114.596 108.761 113.976 108.65 113.312C108.529 112.648 107.898 112.217 107.246 112.338Z" fill="#E6C77F"/>
<path d="M105.531 102.897C104.878 103.019 104.447 103.639 104.558 104.303C104.679 104.956 105.299 105.388 105.962 105.277C106.615 105.155 107.046 104.536 106.936 103.871C106.814 103.207 106.184 102.776 105.531 102.897Z" fill="#E6C77F"/>
<path d="M98.6726 65.1338C98.0199 65.2556 97.5885 65.8754 97.6991 66.5394C97.8208 67.1924 98.4403 67.6241 99.104 67.5134C99.7677 67.4027 100.188 66.7719 100.077 66.1078C99.9558 65.4437 99.3363 65.0121 98.6726 65.1338Z" fill="#E6C77F"/>
<path d="M108.794 138.868C109.46 138.868 110 138.328 110 137.661C110 136.995 109.46 136.455 108.794 136.455C108.128 136.455 107.588 136.995 107.588 137.661C107.588 138.328 108.128 138.868 108.794 138.868Z" fill="#E6C77F"/>
<path d="M96.969 55.6934C96.3164 55.8151 95.885 56.4349 95.9956 57.099C96.1173 57.752 96.7367 58.1836 97.4004 58.073C98.0531 57.9512 98.4845 57.3314 98.3739 56.6674C98.2411 56.0033 97.6217 55.5716 96.969 55.6934Z" fill="#E6C77F"/>
<path d="M105.155 117.595C104.502 117.717 104.071 118.337 104.181 119.001C104.303 119.654 104.923 120.086 105.586 119.975C106.239 119.853 106.67 119.233 106.56 118.569C106.438 117.905 105.808 117.473 105.155 117.595Z" fill="#E6C77F"/>
<path d="M93.9049 62.3448C94.0265 62.9978 94.646 63.4294 95.3097 63.3187C95.9624 63.197 96.3938 62.5772 96.2832 61.9131C96.1615 61.2601 95.542 60.8285 94.8783 60.9392C94.2257 61.0609 93.7832 61.6918 93.9049 62.3448Z" fill="#E6C77F"/>
<path d="M106.869 127.036C106.217 127.158 105.785 127.778 105.896 128.442C106.018 129.095 106.637 129.526 107.301 129.416C107.954 129.294 108.385 128.674 108.274 128.01C108.153 127.346 107.522 126.914 106.869 127.036Z" fill="#E6C77F"/>
<path d="M111.04 116.522C110.387 116.644 109.956 117.264 110.066 117.928C110.188 118.581 110.808 119.012 111.471 118.902C112.124 118.78 112.555 118.16 112.445 117.496C112.323 116.832 111.692 116.4 111.04 116.522Z" fill="#E6C77F"/>
<path d="M107.611 97.6402C106.958 97.7619 106.527 98.3817 106.637 99.0458C106.759 99.6988 107.378 100.13 108.042 100.02C108.695 99.898 109.126 99.2782 109.015 98.6141C108.894 97.9501 108.274 97.5184 107.611 97.6402Z" fill="#E6C77F"/>
<path d="M109.325 107.081C108.673 107.203 108.241 107.823 108.352 108.487C108.473 109.14 109.093 109.571 109.757 109.461C110.409 109.339 110.841 108.719 110.73 108.055C110.608 107.391 109.989 106.959 109.325 107.081Z" fill="#E6C77F"/>
<path d="M112.754 125.963C112.102 126.085 111.67 126.704 111.781 127.369C111.903 128.022 112.522 128.453 113.186 128.343C113.838 128.221 114.27 127.601 114.159 126.937C114.038 126.273 113.407 125.841 112.754 125.963Z" fill="#E6C77F"/>
<path d="M114.469 135.403C113.816 135.525 113.385 136.145 113.496 136.809C113.617 137.462 114.237 137.894 114.9 137.783C115.553 137.661 115.985 137.041 115.874 136.377C115.752 135.713 115.122 135.282 114.469 135.403Z" fill="#E6C77F"/>
<path d="M110.675 131.22C110.022 131.342 109.591 131.961 109.701 132.625C109.823 133.278 110.442 133.71 111.106 133.599C111.759 133.478 112.19 132.858 112.08 132.194C111.947 131.53 111.327 131.098 110.675 131.22Z" fill="#E6C77F"/>
<path d="M105.907 88.1992C105.254 88.321 104.823 88.9408 104.934 89.6049C105.055 90.2579 105.675 90.6895 106.338 90.5788C106.991 90.4571 107.423 89.8373 107.312 89.1732C107.179 88.5091 106.56 88.0775 105.907 88.1992Z" fill="#E6C77F"/>
<path d="M104.192 78.7583C103.54 78.8801 103.108 79.4999 103.219 80.1639C103.341 80.8169 103.96 81.2486 104.624 81.1379C105.277 81.0162 105.708 80.3964 105.597 79.7323C105.476 79.0682 104.845 78.6366 104.192 78.7583Z" fill="#E6C77F"/>
<path d="M100.763 59.8766C100.111 59.9984 99.6792 60.6182 99.7898 61.2822C99.9115 61.9352 100.531 62.3669 101.195 62.2562C101.847 62.1344 102.279 61.5146 102.168 60.8506C102.046 60.1976 101.416 59.7549 100.763 59.8766Z" fill="#E6C77F"/>
<path d="M108.96 121.779C108.308 121.901 107.876 122.521 107.987 123.185C108.108 123.838 108.728 124.27 109.392 124.159C110.044 124.037 110.476 123.417 110.365 122.753C110.243 122.089 109.613 121.658 108.96 121.779Z" fill="#E6C77F"/>
<path d="M102.478 69.3179C101.825 69.4396 101.394 70.0594 101.504 70.7235C101.626 71.3765 102.246 71.8082 102.909 71.6975C103.562 71.5757 103.993 70.9559 103.883 70.2919C103.761 69.6278 103.131 69.1962 102.478 69.3179Z" fill="#E6C77F"/>
<path d="M130.409 122.753C129.757 122.875 129.325 123.495 129.436 124.159C129.558 124.812 130.177 125.243 130.841 125.133C131.493 125.011 131.925 124.391 131.814 123.727C131.692 123.074 131.062 122.631 130.409 122.753Z" fill="#E6C77F"/>
<path d="M122.223 60.8508C121.571 60.9725 121.139 61.5923 121.25 62.2564C121.372 62.9094 121.991 63.3411 122.655 63.2304C123.308 63.1086 123.739 62.4888 123.628 61.8248C123.496 61.1718 122.876 60.7401 122.223 60.8508Z" fill="#E6C77F"/>
<path d="M125.642 79.7326C124.989 79.8544 124.558 80.4742 124.668 81.1382C124.79 81.7912 125.409 82.2229 126.073 82.1122C126.726 81.9905 127.157 81.3707 127.046 80.7066C126.925 80.0536 126.294 79.622 125.642 79.7326Z" fill="#E6C77F"/>
<path d="M130.785 108.055C130.133 108.177 129.701 108.796 129.812 109.461C129.934 110.114 130.553 110.545 131.217 110.434C131.869 110.313 132.301 109.693 132.19 109.029C132.069 108.376 131.438 107.944 130.785 108.055Z" fill="#E6C77F"/>
<path d="M127.356 89.1735C126.704 89.2953 126.272 89.9151 126.383 90.5792C126.504 91.2322 127.124 91.6638 127.788 91.5531C128.44 91.4314 128.872 90.8116 128.761 90.1475C128.639 89.4945 128.009 89.0629 127.356 89.1735Z" fill="#E6C77F"/>
<path d="M129.071 98.614C128.418 98.7357 127.987 99.3555 128.097 100.02C128.219 100.673 128.838 101.104 129.502 100.994C130.155 100.872 130.586 100.252 130.476 99.588C130.354 98.9349 129.723 98.5033 129.071 98.614Z" fill="#E6C77F"/>
<path d="M123.927 70.2917C123.274 70.4135 122.843 71.0333 122.954 71.6973C123.075 72.3503 123.695 72.782 124.358 72.6713C125.011 72.5496 125.442 71.9297 125.332 71.2657C125.21 70.6127 124.591 70.181 123.927 70.2917Z" fill="#E6C77F"/>
<path d="M123.562 84.9899C122.909 85.1116 122.478 85.7314 122.588 86.3955C122.71 87.0485 123.33 87.4801 123.993 87.3695C124.646 87.2477 125.077 86.6279 124.967 85.9639C124.845 85.3109 124.215 84.8681 123.562 84.9899Z" fill="#E6C77F"/>
<path d="M132.124 132.194C131.471 132.316 131.04 132.936 131.15 133.6C131.272 134.253 131.892 134.684 132.555 134.574C133.208 134.452 133.639 133.832 133.529 133.168C133.407 132.515 132.777 132.072 132.124 132.194Z" fill="#E6C77F"/>
<path d="M125.277 94.4303C124.624 94.5521 124.192 95.1719 124.303 95.8359C124.425 96.4889 125.044 96.9206 125.708 96.8099C126.361 96.6882 126.792 96.0684 126.681 95.4043C126.549 94.7513 125.929 94.3086 125.277 94.4303Z" fill="#E6C77F"/>
<path d="M126.98 103.871C126.327 103.993 125.896 104.613 126.007 105.277C126.128 105.93 126.748 106.361 127.412 106.251C128.064 106.129 128.496 105.509 128.385 104.845C128.263 104.192 127.644 103.749 126.98 103.871Z" fill="#E6C77F"/>
<path d="M128.695 113.312C128.042 113.434 127.611 114.054 127.721 114.718C127.843 115.371 128.462 115.802 129.126 115.692C129.779 115.57 130.21 114.95 130.1 114.286C129.978 113.633 129.358 113.19 128.695 113.312Z" fill="#E6C77F"/>
<path d="M134.58 112.25C133.927 112.371 133.496 112.991 133.606 113.655C133.728 114.308 134.347 114.74 135.011 114.629C135.664 114.507 136.095 113.888 135.985 113.224C135.863 112.559 135.243 112.128 134.58 112.25Z" fill="#E6C77F"/>
<path d="M138.009 131.12C137.356 131.242 136.925 131.862 137.035 132.526C137.157 133.179 137.777 133.611 138.44 133.5C139.093 133.378 139.524 132.758 139.414 132.094C139.292 131.441 138.662 131.01 138.009 131.12Z" fill="#E6C77F"/>
<path d="M136.294 121.69C135.642 121.812 135.21 122.432 135.321 123.096C135.442 123.749 136.062 124.181 136.726 124.07C137.378 123.948 137.81 123.329 137.699 122.664C137.577 122 136.947 121.569 136.294 121.69Z" fill="#E6C77F"/>
<path d="M71.7699 67.5912C72.4226 67.4695 72.854 66.8497 72.7434 66.1856C72.6217 65.5326 72.0022 65.101 71.3385 65.2116C71.1504 65.2448 70.9956 65.3223 70.8518 65.433C70.7301 65.5879 70.5973 65.7429 70.4757 65.9089C70.3761 66.1303 70.3208 66.3627 70.365 66.6172C70.4867 67.2813 71.1173 67.713 71.7699 67.5912Z" fill="#E6C77F"/>
<path d="M121.847 75.549C121.195 75.6707 120.763 76.2905 120.874 76.9546C120.996 77.6076 121.615 78.0392 122.279 77.9286C122.931 77.8068 123.363 77.187 123.252 76.5229C123.131 75.8699 122.5 75.4272 121.847 75.549Z" fill="#E6C77F"/>
<path d="M117.301 100.761C116.648 100.883 116.217 101.503 116.327 102.167C116.449 102.82 117.069 103.252 117.732 103.141C118.385 103.019 118.816 102.399 118.706 101.735C118.584 101.071 117.954 100.64 117.301 100.761Z" fill="#E6C77F"/>
<path d="M132.865 102.809C132.212 102.931 131.781 103.551 131.892 104.215C132.013 104.868 132.633 105.299 133.296 105.189C133.949 105.067 134.381 104.447 134.27 103.783C134.148 103.119 133.529 102.687 132.865 102.809Z" fill="#E6C77F"/>
<path d="M134.215 126.937C133.562 127.058 133.131 127.678 133.241 128.342C133.363 128.995 133.982 129.427 134.646 129.316C135.299 129.195 135.73 128.575 135.619 127.911C135.498 127.258 134.867 126.826 134.215 126.937Z" fill="#E6C77F"/>
<path d="M132.5 117.496C131.847 117.618 131.416 118.237 131.527 118.901C131.648 119.554 132.268 119.986 132.931 119.875C133.584 119.754 134.015 119.134 133.905 118.47C133.783 117.817 133.153 117.385 132.5 117.496Z" fill="#E6C77F"/>
<path d="M129.447 83.9273C128.794 84.049 128.363 84.6688 128.473 85.3329C128.595 85.9859 129.215 86.4175 129.878 86.3069C130.531 86.1851 130.962 85.5653 130.852 84.9012C130.73 84.2372 130.1 83.8055 129.447 83.9273Z" fill="#E6C77F"/>
<path d="M131.162 93.3682C130.509 93.4899 130.077 94.1097 130.188 94.7738C130.31 95.4268 130.929 95.8585 131.593 95.7478C132.246 95.626 132.677 95.0062 132.566 94.3422C132.434 93.6781 131.814 93.2464 131.162 93.3682Z" fill="#E6C77F"/>
<path d="M118.418 56.667C117.765 56.7887 117.334 57.4085 117.445 58.0726C117.566 58.7256 118.186 59.1572 118.85 59.0465C119.513 58.9359 119.934 58.305 119.823 57.6409C119.779 57.3864 119.635 57.1872 119.469 57.0211C119.303 56.9105 119.126 56.8109 118.949 56.7112C118.783 56.6559 118.606 56.6338 118.418 56.667Z" fill="#E6C77F"/>
<path d="M119.392 95.5039C118.739 95.6257 118.308 96.2455 118.418 96.9095C118.54 97.5625 119.159 97.9942 119.823 97.8835C120.476 97.7618 120.907 97.142 120.796 96.4779C120.664 95.8138 120.044 95.3822 119.392 95.5039Z" fill="#E6C77F"/>
<path d="M117.677 86.0635C117.024 86.1853 116.593 86.805 116.704 87.4691C116.825 88.1221 117.445 88.5538 118.108 88.4431C118.761 88.3213 119.192 87.7015 119.082 87.0375C118.96 86.3734 118.33 85.9418 117.677 86.0635Z" fill="#E6C77F"/>
<path d="M122.81 114.386C122.157 114.508 121.726 115.127 121.836 115.791C121.958 116.444 122.577 116.876 123.241 116.765C123.894 116.644 124.325 116.024 124.215 115.36C124.093 114.696 123.462 114.264 122.81 114.386Z" fill="#E6C77F"/>
<path d="M115.962 76.6226C115.31 76.7443 114.878 77.3641 114.989 78.0282C115.111 78.6812 115.73 79.1128 116.394 79.0022C117.046 78.8804 117.478 78.2606 117.367 77.5966C117.246 76.9325 116.615 76.5008 115.962 76.6226Z" fill="#E6C77F"/>
<path d="M126.239 133.268C125.586 133.389 125.155 134.009 125.265 134.673C125.387 135.326 126.007 135.758 126.67 135.647C127.323 135.525 127.754 134.906 127.644 134.242C127.522 133.578 126.892 133.146 126.239 133.268Z" fill="#E6C77F"/>
<path d="M121.095 104.945C120.442 105.067 120.011 105.686 120.122 106.35C120.243 107.003 120.863 107.435 121.527 107.324C122.179 107.203 122.611 106.583 122.5 105.919C122.378 105.255 121.759 104.823 121.095 104.945Z" fill="#E6C77F"/>
<path d="M114.248 67.1817C113.595 67.3034 113.164 67.9232 113.274 68.5873C113.396 69.2403 114.015 69.6719 114.679 69.5612C115.332 69.4395 115.763 68.8197 115.653 68.1556C115.531 67.4916 114.9 67.0599 114.248 67.1817Z" fill="#E6C77F"/>
<path d="M119.015 110.202C118.363 110.324 117.931 110.944 118.042 111.608C118.164 112.261 118.783 112.692 119.447 112.582C120.1 112.46 120.531 111.84 120.42 111.176C120.299 110.512 119.668 110.08 119.015 110.202Z" fill="#E6C77F"/>
<path d="M122.445 129.073C121.792 129.195 121.361 129.815 121.471 130.479C121.593 131.132 122.212 131.563 122.876 131.453C123.529 131.331 123.96 130.711 123.85 130.047C123.717 129.394 123.097 128.962 122.445 129.073Z" fill="#E6C77F"/>
<path d="M112.533 57.7408C111.881 57.8625 111.449 58.4823 111.56 59.1464C111.681 59.7994 112.301 60.231 112.965 60.1203C113.617 59.9986 114.049 59.3788 113.938 58.7147C113.816 58.0507 113.186 57.619 112.533 57.7408Z" fill="#E6C77F"/>
<path d="M120.73 119.643C120.077 119.765 119.646 120.385 119.757 121.049C119.878 121.702 120.498 122.133 121.161 122.023C121.814 121.901 122.246 121.281 122.135 120.617C122.013 119.953 121.383 119.521 120.73 119.643Z" fill="#E6C77F"/>
<path d="M115.033 54.8521C114.712 54.7414 114.381 54.6528 114.049 54.5532C114.314 54.7856 114.657 54.9185 115.033 54.8521Z" fill="#E6C77F"/>
<path d="M125.111 111.519C125.777 111.519 126.316 110.979 126.316 110.313C126.316 109.647 125.777 109.106 125.111 109.106C124.445 109.106 123.905 109.647 123.905 110.313C123.905 110.979 124.445 111.519 125.111 111.519Z" fill="#E6C77F"/>
<path d="M123.186 99.6875C122.533 99.8093 122.102 100.429 122.212 101.093C122.334 101.746 122.954 102.178 123.617 102.067C124.27 101.945 124.701 101.326 124.591 100.661C124.469 99.9974 123.838 99.5658 123.186 99.6875Z" fill="#E6C77F"/>
<path d="M126.615 118.569C125.962 118.691 125.531 119.311 125.642 119.975C125.763 120.628 126.383 121.06 127.046 120.949C127.699 120.827 128.131 120.207 128.02 119.543C127.898 118.879 127.268 118.448 126.615 118.569Z" fill="#E6C77F"/>
<path d="M128.33 128.01C127.677 128.132 127.246 128.752 127.356 129.416C127.478 130.069 128.097 130.501 128.761 130.39C129.414 130.268 129.845 129.648 129.735 128.984C129.602 128.32 128.982 127.889 128.33 128.01Z" fill="#E6C77F"/>
<path d="M124.524 123.827C123.872 123.948 123.44 124.568 123.551 125.232C123.673 125.885 124.292 126.317 124.956 126.206C125.608 126.085 126.04 125.465 125.929 124.801C125.808 124.137 125.177 123.705 124.524 123.827Z" fill="#E6C77F"/>
<path d="M121.471 90.2471C120.819 90.3688 120.387 90.9886 120.498 91.6527C120.619 92.3057 121.239 92.7374 121.903 92.6267C122.555 92.5049 122.987 91.8851 122.876 91.2211C122.754 90.557 122.124 90.1254 121.471 90.2471Z" fill="#E6C77F"/>
<path d="M120.133 66.1081C119.48 66.2298 119.049 66.8496 119.159 67.5137C119.281 68.1667 119.9 68.5983 120.564 68.4876C121.217 68.3659 121.648 67.7461 121.538 67.082C121.416 66.429 120.785 65.9863 120.133 66.1081Z" fill="#E6C77F"/>
<path d="M116.327 61.9243C115.675 62.0461 115.243 62.6659 115.354 63.33C115.476 63.983 116.095 64.4146 116.759 64.3039C117.423 64.1932 117.843 63.5624 117.732 62.8983C117.611 62.2342 116.991 61.8026 116.327 61.9243Z" fill="#E6C77F"/>
<path d="M118.042 71.3653C117.389 71.487 116.958 72.1068 117.069 72.7709C117.19 73.4239 117.81 73.8555 118.473 73.7448C119.126 73.6231 119.558 73.0033 119.447 72.3392C119.325 71.6752 118.706 71.2435 118.042 71.3653Z" fill="#E6C77F"/>
<path d="M119.757 80.8062C119.104 80.9279 118.673 81.5477 118.783 82.2118C118.905 82.8648 119.524 83.2964 120.188 83.1858C120.841 83.064 121.272 82.4442 121.162 81.7801C121.04 81.1161 120.409 80.6844 119.757 80.8062Z" fill="#E6C77F"/>
<path d="M84.4469 87.2256C83.7942 87.3474 83.3628 87.9672 83.4734 88.6312C83.5951 89.2842 84.2146 89.7159 84.8783 89.6052C85.531 89.4835 85.9624 88.8637 85.8518 88.1996C85.7301 87.5355 85.0996 87.1039 84.4469 87.2256Z" fill="#E6C77F"/>
<path d="M78.5619 88.2877C77.9093 88.4095 77.4779 89.0293 77.5885 89.6934C77.7102 90.3464 78.3296 90.778 78.9934 90.6673C79.646 90.5456 80.0774 89.9258 79.9668 89.2617C79.8451 88.6087 79.2146 88.166 78.5619 88.2877Z" fill="#E6C77F"/>
<path d="M76.8473 78.8473C76.1947 78.9691 75.7633 79.5889 75.8739 80.2529C75.9956 80.9059 76.615 81.3376 77.2788 81.2269C77.9314 81.1051 78.3628 80.4854 78.2522 79.8213C78.1305 79.1683 77.5 78.7256 76.8473 78.8473Z" fill="#E6C77F"/>
<path d="M80.2765 97.7287C79.6239 97.8504 79.1925 98.4702 79.3031 99.1343C79.4248 99.7873 80.0442 100.219 80.708 100.108C81.3606 99.9865 81.792 99.3667 81.6814 98.7026C81.5597 98.0496 80.9292 97.6069 80.2765 97.7287Z" fill="#E6C77F"/>
<path d="M81.9912 107.17C81.3385 107.291 80.9071 107.911 81.0177 108.575C81.1394 109.228 81.7589 109.66 82.4226 109.549C83.0752 109.427 83.5066 108.808 83.396 108.144C83.2743 107.491 82.6438 107.048 81.9912 107.17Z" fill="#E6C77F"/>
<path d="M83.9159 119.001C84.5818 119.001 85.1217 118.461 85.1217 117.795C85.1217 117.129 84.5818 116.588 83.9159 116.588C83.25 116.588 82.7102 117.129 82.7102 117.795C82.7102 118.461 83.25 119.001 83.9159 119.001Z" fill="#E6C77F"/>
<path d="M79.9004 112.427C79.2478 112.549 78.8164 113.168 78.927 113.832C79.0487 114.485 79.6681 114.917 80.3319 114.806C80.9845 114.685 81.4159 114.065 81.3053 113.401C81.1836 112.737 80.5531 112.305 79.9004 112.427Z" fill="#E6C77F"/>
<path d="M85.0442 140.75C84.3916 140.871 83.9602 141.491 84.0708 142.155C84.1925 142.808 84.8119 143.24 85.4757 143.129C86.1283 143.007 86.5597 142.388 86.4491 141.724C86.3274 141.059 85.6969 140.628 85.0442 140.75Z" fill="#E6C77F"/>
<path d="M81.615 121.868C80.9624 121.989 80.531 122.609 80.6416 123.273C80.7633 123.926 81.3827 124.358 82.0465 124.247C82.6991 124.126 83.1305 123.506 83.0199 122.842C82.8982 122.178 82.2677 121.746 81.615 121.868Z" fill="#E6C77F"/>
<path d="M75.1327 69.4064C74.4801 69.5281 74.0487 70.1479 74.1593 70.812C74.281 71.465 74.9004 71.8967 75.5642 71.786C76.2168 71.6642 76.6482 71.0444 76.5376 70.3804C76.4159 69.7274 75.7854 69.2846 75.1327 69.4064Z" fill="#E6C77F"/>
<path d="M83.3296 131.309C82.677 131.43 82.2456 132.05 82.3562 132.714C82.4779 133.367 83.0973 133.799 83.7611 133.688C84.4137 133.566 84.8451 132.947 84.7345 132.283C84.6128 131.619 83.9823 131.187 83.3296 131.309Z" fill="#E6C77F"/>
<path d="M82.7323 77.7847C82.0796 77.9064 81.6482 78.5262 81.7589 79.1903C81.8805 79.8433 82.5 80.275 83.1637 80.1643C83.8164 80.0425 84.2478 79.4227 84.1372 78.7587C84.0155 78.0946 83.385 77.663 82.7323 77.7847Z" fill="#E6C77F"/>
<path d="M74.6792 61.7139C74.4027 61.9131 74.1261 62.1234 73.8606 62.3337C74.2367 62.2562 74.5243 62.0238 74.6792 61.7139Z" fill="#E6C77F"/>
<path d="M90.9292 139.676C90.2765 139.797 89.8451 140.417 89.9558 141.081C90.0774 141.734 90.6969 142.166 91.3606 142.055C92.0133 141.933 92.4447 141.314 92.3341 140.649C92.2124 139.996 91.5819 139.565 90.9292 139.676Z" fill="#E6C77F"/>
<path d="M87.5 120.794C86.8473 120.916 86.4159 121.536 86.5265 122.2C86.6482 122.853 87.2677 123.284 87.9314 123.174C88.5841 123.052 89.0155 122.432 88.9049 121.768C88.7832 121.115 88.1527 120.683 87.5 120.794Z" fill="#E6C77F"/>
<path d="M85.7854 111.353C85.1327 111.475 84.7013 112.095 84.8119 112.759C84.9336 113.412 85.5531 113.843 86.2168 113.733C86.8695 113.611 87.3009 112.991 87.1903 112.327C87.0686 111.674 86.4381 111.243 85.7854 111.353Z" fill="#E6C77F"/>
<path d="M89.2146 130.235C88.5619 130.357 88.1305 130.977 88.2411 131.641C88.3628 132.294 88.9823 132.725 89.646 132.615C90.2987 132.493 90.7301 131.873 90.6195 131.209C90.4978 130.556 89.8673 130.124 89.2146 130.235Z" fill="#E6C77F"/>
<path d="M81.0177 68.3438C80.365 68.4655 79.9336 69.0853 80.0442 69.7494C80.1659 70.4024 80.7854 70.834 81.4491 70.7234C82.1128 70.6127 82.5332 69.9818 82.4226 69.3177C82.3009 68.6537 81.6704 68.222 81.0177 68.3438Z" fill="#E6C77F"/>
<path d="M84.0708 101.912C83.4181 102.034 82.9867 102.654 83.0973 103.318C83.219 103.971 83.8385 104.403 84.5022 104.292C85.1549 104.17 85.5863 103.55 85.4757 102.886C85.354 102.233 84.7345 101.802 84.0708 101.912Z" fill="#E6C77F"/>
<path d="M77.2234 64.1491C76.5708 64.2709 76.1394 64.8907 76.25 65.5547C76.3717 66.2077 76.9911 66.6394 77.6549 66.5287C78.3186 66.418 78.7389 65.7872 78.6283 65.1231C78.5066 64.4701 77.8761 64.0385 77.2234 64.1491Z" fill="#E6C77F"/>
<path d="M78.9381 73.5901C78.2854 73.7118 77.854 74.3316 77.9646 74.9957C78.0863 75.6487 78.7058 76.0803 79.3695 75.9696C80.0221 75.8479 80.4535 75.2281 80.3429 74.564C80.2212 73.911 79.5907 73.4794 78.9381 73.5901Z" fill="#E6C77F"/>
<path d="M80.6527 83.0305C80 83.1522 79.5686 83.772 79.6792 84.4361C79.8009 85.0891 80.4204 85.5207 81.0841 85.4101C81.7367 85.2883 82.1681 84.6685 82.0575 84.0045C81.9248 83.3515 81.3053 82.9198 80.6527 83.0305Z" fill="#E6C77F"/>
<path d="M82.3562 92.4714C81.7035 92.5931 81.2721 93.2129 81.3827 93.877C81.5044 94.53 82.1239 94.9616 82.7876 94.851C83.4403 94.7292 83.8717 94.1094 83.7611 93.4454C83.6394 92.7924 83.0199 92.3607 82.3562 92.4714Z" fill="#E6C77F"/>
<path d="M85.4093 126.051C84.7566 126.173 84.3252 126.793 84.4358 127.457C84.5575 128.11 85.177 128.542 85.8407 128.431C86.4934 128.309 86.9248 127.689 86.8142 127.025C86.6925 126.372 86.073 125.93 85.4093 126.051Z" fill="#E6C77F"/>
<path d="M87.1239 135.492C86.4712 135.614 86.0398 136.234 86.1504 136.898C86.2721 137.551 86.8916 137.983 87.5553 137.872C88.208 137.75 88.6394 137.13 88.5288 136.466C88.4071 135.813 87.7876 135.371 87.1239 135.492Z" fill="#E6C77F"/>
<path d="M77.4447 132.371C76.792 132.493 76.3606 133.112 76.4712 133.776C76.5929 134.429 77.2124 134.861 77.8761 134.75C78.5288 134.629 78.9602 134.009 78.8496 133.345C78.7279 132.692 78.0973 132.26 77.4447 132.371Z" fill="#E6C77F"/>
<path d="M69.2478 70.48C68.5951 70.6018 68.1637 71.2215 68.2743 71.8856C68.396 72.5386 69.0155 72.9703 69.6792 72.8596C70.3319 72.7378 70.7633 72.118 70.6527 71.454C70.531 70.7899 69.9004 70.3583 69.2478 70.48Z" fill="#E6C77F"/>
<path d="M74.0155 113.501C73.3628 113.622 72.9314 114.242 73.042 114.906C73.1637 115.559 73.7832 115.991 74.4469 115.88C75.0996 115.758 75.531 115.139 75.4204 114.474C75.2987 113.81 74.6681 113.379 74.0155 113.501Z" fill="#E6C77F"/>
<path d="M67.5996 78.1057C68.2522 77.984 68.6836 77.3642 68.573 76.7001C68.4624 76.036 67.8319 75.6155 67.1681 75.7261C66.9469 75.7704 66.7699 75.87 66.615 76.0028C66.5597 76.5673 66.5266 77.1428 66.5155 77.7183C66.792 78.0172 67.1792 78.1832 67.5996 78.1057Z" fill="#E6C77F"/>
<path d="M75.7301 122.941C75.0774 123.063 74.646 123.683 74.7566 124.347C74.8783 125 75.4978 125.432 76.1615 125.321C76.8142 125.199 77.2456 124.579 77.135 123.915C77.0133 123.251 76.3827 122.82 75.7301 122.941Z" fill="#E6C77F"/>
<path d="M78.1858 102.986C77.5332 103.108 77.1018 103.727 77.2124 104.391C77.3341 105.044 77.9535 105.476 78.6173 105.365C79.2699 105.244 79.7013 104.624 79.5907 103.96C79.469 103.296 78.8385 102.864 78.1858 102.986Z" fill="#E6C77F"/>
<path d="M126.018 65.0454C125.365 65.1672 124.934 65.787 125.044 66.451C125.166 67.104 125.785 67.5357 126.449 67.425C126.869 67.3475 127.168 67.0598 127.323 66.6945C127.113 66.1522 126.881 65.632 126.626 65.1229C126.438 65.0454 126.228 65.0011 126.018 65.0454Z" fill="#E6C77F"/>
<path d="M127.732 74.4864C127.08 74.6081 126.648 75.2279 126.759 75.892C126.881 76.545 127.5 76.9766 128.164 76.8659C128.816 76.7442 129.248 76.1244 129.137 75.4603C129.015 74.7963 128.385 74.3646 127.732 74.4864Z" fill="#E6C77F"/>
<path d="M70.5863 94.6187C69.9336 94.7404 69.5022 95.3602 69.6128 96.0243C69.7345 96.6773 70.354 97.1089 71.0177 96.9983C71.6704 96.8765 72.1018 96.2567 71.9912 95.5927C71.8695 94.9286 71.25 94.4969 70.5863 94.6187Z" fill="#E6C77F"/>
<path d="M68.8827 85.1778C68.2301 85.2995 67.7987 85.9193 67.9093 86.5834C68.031 87.2364 68.6504 87.668 69.3142 87.5573C69.9668 87.4356 70.3982 86.8158 70.2876 86.1517C70.1549 85.4877 69.5354 85.056 68.8827 85.1778Z" fill="#E6C77F"/>
<path d="M79.5907 144.191C80.2434 144.07 80.6748 143.45 80.5642 142.786C80.4425 142.133 79.823 141.701 79.1593 141.812C78.5066 141.933 78.0752 142.553 78.1858 143.217C78.3075 143.87 78.927 144.313 79.5907 144.191Z" fill="#E6C77F"/>
<path d="M72.3009 104.06C71.6482 104.181 71.2168 104.801 71.3274 105.465C71.4491 106.118 72.0686 106.55 72.7323 106.439C73.385 106.317 73.8164 105.698 73.7057 105.034C73.5841 104.37 72.9535 103.938 72.3009 104.06Z" fill="#E6C77F"/>
<path d="M73.0531 74.6636C72.4004 74.7853 71.969 75.4052 72.0796 76.0692C72.2013 76.7222 72.8208 77.1539 73.4845 77.0432C74.1372 76.9214 74.5686 76.3016 74.458 75.6376C74.3363 74.9735 73.7058 74.5419 73.0531 74.6636Z" fill="#E6C77F"/>
<path d="M79.5243 127.125C78.8717 127.247 78.4403 127.867 78.5509 128.531C78.6726 129.184 79.292 129.615 79.9557 129.505C80.6084 129.383 81.0398 128.763 80.9292 128.099C80.8075 127.435 80.1881 127.003 79.5243 127.125Z" fill="#E6C77F"/>
<path d="M76.4712 93.545C75.8186 93.6667 75.3872 94.2865 75.4978 94.9506C75.6195 95.6036 76.2389 96.0352 76.9026 95.9245C77.5553 95.8028 77.9867 95.183 77.8761 94.5189C77.7544 93.8549 77.1349 93.4232 76.4712 93.545Z" fill="#E6C77F"/>
<path d="M74.7677 84.1045C74.115 84.2263 73.6836 84.8461 73.7942 85.5101C73.9159 86.1631 74.5354 86.5948 75.1991 86.4841C75.8518 86.3624 76.2832 85.7426 76.1726 85.0785C76.0398 84.4144 75.4203 83.9828 74.7677 84.1045Z" fill="#E6C77F"/>
<path d="M81.2389 136.565C80.5863 136.687 80.1549 137.307 80.2655 137.971C80.3872 138.624 81.0066 139.056 81.6704 138.945C82.323 138.823 82.7544 138.203 82.6438 137.539C82.5221 136.875 81.9027 136.444 81.2389 136.565Z" fill="#E6C77F"/>
<path d="M77.8208 117.684C77.1681 117.806 76.7367 118.426 76.8473 119.09C76.969 119.743 77.5885 120.174 78.2522 120.064C78.9049 119.942 79.3363 119.322 79.2257 118.658C79.0929 117.994 78.4734 117.562 77.8208 117.684Z" fill="#E6C77F"/>
<path d="M70.9624 79.9204C70.3097 80.0422 69.8783 80.662 69.9889 81.3261C70.1106 81.9791 70.7301 82.4107 71.3938 82.3C72.0465 82.1783 72.4779 81.5585 72.3673 80.8944C72.2456 80.2303 71.615 79.7987 70.9624 79.9204Z" fill="#E6C77F"/>
<path d="M74.3916 98.8023C73.7389 98.924 73.3075 99.5438 73.4181 100.208C73.5398 100.861 74.1593 101.293 74.823 101.182C75.4757 101.06 75.9071 100.44 75.7965 99.7762C75.6748 99.1122 75.0442 98.6805 74.3916 98.8023Z" fill="#E6C77F"/>
<path d="M72.677 89.3614C72.0243 89.4831 71.5929 90.1029 71.7035 90.767C71.8252 91.42 72.4447 91.8516 73.1084 91.7409C73.7611 91.6192 74.1925 90.9994 74.0819 90.3353C73.9602 89.6713 73.3296 89.2396 72.677 89.3614Z" fill="#E6C77F"/>
<path d="M76.1062 108.243C75.4535 108.365 75.0221 108.985 75.1327 109.649C75.2544 110.302 75.8739 110.733 76.5376 110.623C77.1903 110.501 77.6217 109.881 77.5111 109.217C77.3894 108.553 76.7589 108.121 76.1062 108.243Z" fill="#E6C77F"/>
<path d="M96.5929 70.3911C95.9403 70.5129 95.5088 71.1327 95.6195 71.7968C95.7412 72.4498 96.3606 72.8814 97.0243 72.7707C97.677 72.649 98.1084 72.0292 97.9978 71.3651C97.8761 70.701 97.2456 70.2694 96.5929 70.3911Z" fill="#E6C77F"/>
<path d="M99.2699 118.658C98.6173 118.78 98.1858 119.399 98.2965 120.063C98.4181 120.716 99.0376 121.148 99.7013 121.037C100.354 120.916 100.785 120.296 100.675 119.632C100.553 118.979 99.9226 118.536 99.2699 118.658Z" fill="#E6C77F"/>
<path d="M102.699 137.54C102.046 137.661 101.615 138.281 101.726 138.945C101.847 139.598 102.467 140.03 103.131 139.919C103.783 139.798 104.215 139.178 104.104 138.514C103.982 137.861 103.352 137.418 102.699 137.54Z" fill="#E6C77F"/>
<path d="M100.985 128.099C100.332 128.221 99.9004 128.84 100.011 129.504C100.133 130.157 100.752 130.589 101.416 130.478C102.069 130.357 102.5 129.737 102.389 129.073C102.268 128.42 101.637 127.977 100.985 128.099Z" fill="#E6C77F"/>
<path d="M91.073 56.7556C90.4204 56.8773 89.9889 57.4971 90.0996 58.1612C90.2212 58.8142 90.8407 59.2458 91.5044 59.1352C92.1571 59.0134 92.5885 58.3936 92.4779 57.7295C92.3562 57.0765 91.7367 56.6449 91.073 56.7556Z" fill="#E6C77F"/>
<path d="M97.5553 109.217C96.9027 109.339 96.4712 109.958 96.5819 110.623C96.7035 111.276 97.323 111.707 97.9867 111.597C98.6394 111.475 99.0708 110.855 98.9602 110.191C98.8385 109.538 98.208 109.095 97.5553 109.217Z" fill="#E6C77F"/>
<path d="M88.9934 62.0128C88.3407 62.1346 87.9093 62.7544 88.0199 63.4185C88.1416 64.0715 88.7611 64.5031 89.4248 64.3924C90.0774 64.2707 90.5088 63.6509 90.3982 62.9868C90.2765 62.3338 89.646 61.8911 88.9934 62.0128Z" fill="#E6C77F"/>
<path d="M90.708 71.4538C90.0553 71.5755 89.6239 72.1953 89.7345 72.8594C89.8562 73.5124 90.4757 73.944 91.1394 73.8333C91.792 73.7116 92.2234 73.0918 92.1128 72.4277C91.9911 71.7747 91.3606 71.332 90.708 71.4538Z" fill="#E6C77F"/>
<path d="M92.7876 66.1965C92.135 66.3182 91.7035 66.938 91.8142 67.6021C91.9358 68.2551 92.5553 68.6868 93.219 68.5761C93.8717 68.4543 94.3031 67.8345 94.1925 67.1705C94.0708 66.5175 93.4513 66.0858 92.7876 66.1965Z" fill="#E6C77F"/>
<path d="M94.1372 90.3356C93.4845 90.4573 93.0531 91.0771 93.1637 91.7412C93.2854 92.3942 93.9049 92.8258 94.5686 92.7152C95.2212 92.5934 95.6527 91.9736 95.542 91.3096C95.4093 90.6566 94.7898 90.2138 94.1372 90.3356Z" fill="#E6C77F"/>
<path d="M95.8407 99.7765C95.1881 99.8983 94.7566 100.518 94.8673 101.182C94.9889 101.835 95.6084 102.267 96.2721 102.156C96.9248 102.034 97.3562 101.415 97.2456 100.75C97.1239 100.097 96.5044 99.6548 95.8407 99.7765Z" fill="#E6C77F"/>
<path d="M92.4226 80.8947C91.7699 81.0164 91.3385 81.6362 91.4491 82.3003C91.5708 82.9533 92.1903 83.3849 92.854 83.2743C93.5066 83.1525 93.9381 82.5327 93.8274 81.8686C93.7057 81.2156 93.0752 80.7729 92.4226 80.8947Z" fill="#E6C77F"/>
<path d="M100.022 89.273C99.3695 89.3947 98.9381 90.0145 99.0487 90.6786C99.1704 91.3316 99.7898 91.7632 100.454 91.6526C101.106 91.5308 101.538 90.911 101.427 90.2469C101.294 89.5829 100.675 89.1512 100.022 89.273Z" fill="#E6C77F"/>
<path d="M104.779 132.282C104.126 132.404 103.695 133.024 103.805 133.688C103.927 134.341 104.546 134.773 105.21 134.662C105.863 134.54 106.294 133.92 106.184 133.256C106.062 132.603 105.442 132.172 104.779 132.282Z" fill="#E6C77F"/>
<path d="M101.726 98.7139C101.073 98.8356 100.642 99.4554 100.752 100.12C100.874 100.773 101.493 101.204 102.157 101.093C102.81 100.972 103.241 100.352 103.131 99.6879C103.009 99.0238 102.389 98.5922 101.726 98.7139Z" fill="#E6C77F"/>
<path d="M103.075 122.842C102.423 122.963 101.991 123.583 102.102 124.247C102.223 124.9 102.843 125.332 103.507 125.221C104.159 125.099 104.591 124.48 104.48 123.815C104.347 123.162 103.728 122.731 103.075 122.842Z" fill="#E6C77F"/>
<path d="M86.1615 96.666C85.5088 96.7878 85.0774 97.4076 85.1881 98.0717C85.3097 98.7247 85.9292 99.1563 86.5929 99.0456C87.2456 98.9239 87.677 98.3041 87.5664 97.64C87.4447 96.9759 86.8142 96.5443 86.1615 96.666Z" fill="#E6C77F"/>
<path d="M97.1903 123.915C96.5376 124.037 96.1062 124.657 96.2168 125.321C96.3385 125.974 96.958 126.405 97.6217 126.295C98.2743 126.173 98.7057 125.553 98.5951 124.889C98.4624 124.225 97.8429 123.793 97.1903 123.915Z" fill="#E6C77F"/>
<path d="M101.361 113.401C100.708 113.522 100.277 114.142 100.387 114.806C100.509 115.459 101.128 115.891 101.792 115.78C102.445 115.658 102.876 115.039 102.765 114.375C102.644 113.722 102.013 113.29 101.361 113.401Z" fill="#E6C77F"/>
<path d="M96.2168 85.0783C95.5642 85.2001 95.1327 85.8199 95.2434 86.4839C95.365 87.1369 95.9845 87.5686 96.6482 87.4579C97.3009 87.3362 97.7323 86.7164 97.6217 86.0523C97.5 85.3993 96.8695 84.9677 96.2168 85.0783Z" fill="#E6C77F"/>
<path d="M97.9314 94.5193C97.2788 94.641 96.8473 95.2608 96.958 95.9249C97.0796 96.5779 97.6991 97.0095 98.3628 96.8988C99.0155 96.7771 99.4469 96.1573 99.3363 95.4932C99.2146 94.8402 98.5841 94.4086 97.9314 94.5193Z" fill="#E6C77F"/>
<path d="M94.5022 75.6374C93.8496 75.7592 93.4181 76.379 93.5288 77.043C93.6504 77.696 94.2699 78.1277 94.9336 78.017C95.5863 77.8953 96.0177 77.2755 95.9071 76.6114C95.7854 75.9584 95.1549 75.5267 94.5022 75.6374Z" fill="#E6C77F"/>
<path d="M99.646 103.96C98.9934 104.082 98.5619 104.702 98.6726 105.366C98.7942 106.019 99.4137 106.45 100.077 106.34C100.73 106.218 101.162 105.598 101.051 104.934C100.929 104.281 100.299 103.849 99.646 103.96Z" fill="#E6C77F"/>
<path d="M98.3075 79.8321C97.6549 79.9538 97.2234 80.5736 97.3341 81.2377C97.4557 81.8907 98.0752 82.3223 98.7389 82.2116C99.3916 82.0899 99.823 81.4701 99.7124 80.806C99.5907 80.142 98.9602 79.7103 98.3075 79.8321Z" fill="#E6C77F"/>
<path d="M86.5376 81.9683C85.885 82.09 85.4535 82.7098 85.5642 83.3739C85.6858 84.0269 86.3053 84.4585 86.969 84.3479C87.6217 84.2261 88.0531 83.6063 87.9425 82.9423C87.8208 82.2782 87.1903 81.8465 86.5376 81.9683Z" fill="#E6C77F"/>
<path d="M84.823 72.5274C84.1704 72.6491 83.7389 73.2689 83.8496 73.933C83.9712 74.586 84.5907 75.0176 85.2544 74.907C85.9071 74.7852 86.3385 74.1654 86.2279 73.5013C86.1062 72.8373 85.4757 72.4056 84.823 72.5274Z" fill="#E6C77F"/>
<path d="M91.6704 110.291C91.0177 110.412 90.5863 111.032 90.6969 111.696C90.8186 112.349 91.4381 112.781 92.1018 112.67C92.7544 112.548 93.1858 111.929 93.0752 111.265C92.9535 110.6 92.323 110.169 91.6704 110.291Z" fill="#E6C77F"/>
<path d="M88.2411 91.4092C87.5885 91.531 87.1571 92.1508 87.2677 92.8148C87.3894 93.4678 88.0089 93.8995 88.6726 93.7888C89.3252 93.667 89.7566 93.0473 89.646 92.3832C89.5243 91.7191 88.9049 91.2875 88.2411 91.4092Z" fill="#E6C77F"/>
<path d="M89.9558 100.85C89.3031 100.971 88.8717 101.591 88.9823 102.255C89.104 102.908 89.7234 103.34 90.3872 103.229C91.0398 103.107 91.4712 102.488 91.3606 101.824C91.2389 101.16 90.6195 100.728 89.9558 100.85Z" fill="#E6C77F"/>
<path d="M83.1084 63.0865C82.4557 63.2082 82.0243 63.828 82.135 64.4921C82.2566 65.1451 82.8761 65.5767 83.5398 65.466C84.1925 65.3443 84.6239 64.7245 84.5133 64.0604C84.3916 63.3964 83.7611 62.9647 83.1084 63.0865Z" fill="#E6C77F"/>
<path d="M87.8761 106.107C87.2235 106.229 86.792 106.849 86.9027 107.513C87.0243 108.166 87.6438 108.597 88.3075 108.487C88.9602 108.365 89.3916 107.745 89.281 107.081C89.1593 106.417 88.5288 105.985 87.8761 106.107Z" fill="#E6C77F"/>
<path d="M89.5907 115.548C88.938 115.67 88.5066 116.289 88.6173 116.953C88.7389 117.606 89.3584 118.038 90.0221 117.927C90.6748 117.806 91.1062 117.186 90.9956 116.522C90.8739 115.858 90.2434 115.426 89.5907 115.548Z" fill="#E6C77F"/>
<path d="M91.3053 124.989C90.6527 125.111 90.2212 125.73 90.3319 126.394C90.4535 127.047 91.073 127.479 91.7367 127.368C92.3894 127.247 92.8208 126.627 92.7102 125.963C92.5774 125.299 91.958 124.867 91.3053 124.989Z" fill="#E6C77F"/>
<path d="M98.8938 133.356C98.2411 133.478 97.8097 134.098 97.9203 134.762C98.042 135.415 98.6615 135.846 99.3252 135.736C99.9779 135.614 100.409 134.994 100.299 134.33C100.177 133.666 99.5575 133.234 98.8938 133.356Z" fill="#E6C77F"/>
<path d="M93.0088 134.419C92.3562 134.54 91.9248 135.16 92.0354 135.824C92.1571 136.477 92.7765 136.909 93.4403 136.798C94.0929 136.677 94.5243 136.057 94.4137 135.393C94.292 134.74 93.6726 134.308 93.0088 134.419Z" fill="#E6C77F"/>
<path d="M78.3407 60.2975C78.4624 60.9505 79.0819 61.3822 79.7456 61.2715C80.4093 61.1608 80.8296 60.53 80.719 59.8659C80.6305 59.39 80.2765 59.0358 79.8341 58.9141C79.3916 59.1022 78.9491 59.2682 78.5177 59.4675C78.3518 59.7109 78.2854 59.9987 78.3407 60.2975Z" fill="#E6C77F"/>
<path d="M88.6173 76.711C87.9646 76.8327 87.5332 77.4525 87.6438 78.1166C87.7655 78.7696 88.385 79.2012 89.0487 79.0905C89.7013 78.9688 90.1327 78.349 90.0221 77.6849C89.9004 77.0209 89.2699 76.5892 88.6173 76.711Z" fill="#E6C77F"/>
<path d="M90.3319 86.1519C89.6792 86.2736 89.2478 86.8934 89.3584 87.5575C89.4801 88.2105 90.0996 88.6421 90.7633 88.5315C91.4159 88.4097 91.8473 87.7899 91.7367 87.1259C91.615 86.4618 90.9845 86.0301 90.3319 86.1519Z" fill="#E6C77F"/>
<path d="M92.0465 95.5928C91.3938 95.7145 90.9624 96.3343 91.073 96.9984C91.1947 97.6514 91.8142 98.0831 92.4779 97.9724C93.1305 97.8506 93.562 97.2308 93.4513 96.5668C93.3296 95.9027 92.6991 95.4711 92.0465 95.5928Z" fill="#E6C77F"/>
<path d="M93.7611 105.034C93.1084 105.155 92.677 105.775 92.7876 106.439C92.9093 107.092 93.5288 107.524 94.1925 107.413C94.8451 107.292 95.2765 106.672 95.1659 106.008C95.0442 105.344 94.4137 104.912 93.7611 105.034Z" fill="#E6C77F"/>
<path d="M95.4757 114.474C94.823 114.596 94.3916 115.216 94.5022 115.88C94.6239 116.533 95.2434 116.964 95.9071 116.854C96.5597 116.732 96.9912 116.112 96.8805 115.448C96.7589 114.784 96.1283 114.352 95.4757 114.474Z" fill="#E6C77F"/>
<path d="M96.8142 138.613C96.1615 138.735 95.7301 139.355 95.8407 140.019C95.9624 140.672 96.5819 141.104 97.2456 140.993C97.8982 140.871 98.3296 140.251 98.219 139.587C98.0973 138.923 97.4668 138.492 96.8142 138.613Z" fill="#E6C77F"/>
<path d="M86.9027 67.27C86.25 67.3918 85.8186 68.0116 85.9292 68.6757C86.0509 69.3287 86.6703 69.7603 87.3341 69.6496C87.9867 69.5279 88.4181 68.9081 88.3075 68.244C88.1858 67.5799 87.5664 67.1483 86.9027 67.27Z" fill="#E6C77F"/>
<path d="M95.0996 129.172C94.4469 129.294 94.0155 129.914 94.1261 130.578C94.2478 131.231 94.8673 131.663 95.531 131.552C96.1836 131.43 96.615 130.81 96.5044 130.146C96.3827 129.482 95.7522 129.051 95.0996 129.172Z" fill="#E6C77F"/>
<path d="M93.385 119.731C92.7323 119.853 92.3009 120.473 92.4115 121.137C92.5332 121.79 93.1527 122.222 93.8164 122.111C94.469 121.989 94.9004 121.37 94.7898 120.705C94.6681 120.041 94.0376 119.61 93.385 119.731Z" fill="#E6C77F"/>
<path d="M85.1881 57.8292C84.5354 57.951 84.104 58.5708 84.2146 59.2349C84.3363 59.8879 84.9558 60.3195 85.6195 60.2088C86.2721 60.0871 86.7035 59.4673 86.5929 58.8032C86.4712 58.1502 85.8518 57.7075 85.1881 57.8292Z" fill="#E6C77F"/>
<path d="M162.434 164.324L67.9646 181.49C66.5376 181.744 65.177 180.804 64.9226 179.376L63.3518 170.743C63.0973 169.315 64.0376 167.954 65.4646 167.699L159.934 150.533C161.361 150.279 162.721 151.219 162.976 152.647L164.546 161.28C164.801 162.697 163.85 164.058 162.434 164.324Z" fill="#22379C"/>
<path d="M122.412 212.679C105.564 215.744 89.4248 204.555 86.3606 187.699L80.8075 157.107L141.825 146.028L147.378 176.62C150.442 193.476 139.259 209.624 122.412 212.679Z" fill="#2F4BD4"/>
<path d="M142.467 149.061L81.2832 160.173C80.1881 160.373 79.1372 159.642 78.9381 158.546L77.0575 148.209C76.8584 147.113 77.5885 146.062 78.6836 145.863L139.867 134.751C140.962 134.551 142.013 135.282 142.212 136.377L144.093 146.715C144.292 147.811 143.562 148.862 142.467 149.061Z" fill="#22379C"/>
<path d="M142.954 140.509L77.8029 152.342L78.1783 154.411L143.329 142.578L142.954 140.509Z" fill="#2F4BD4"/>
<path d="M121.217 251.494C99.7566 251.494 80.6527 236.132 76.6925 214.284L68.0088 166.438C67.7655 165.076 68.6615 163.77 70.0332 163.516L74.9004 162.63C76.2611 162.387 77.5664 163.283 77.8208 164.656L86.4934 212.502C89.9668 231.671 108.385 244.432 127.544 240.946C136.825 239.264 144.889 234.062 150.265 226.303C155.642 218.545 157.666 209.159 155.985 199.873L147.301 152.027C147.058 150.666 147.954 149.36 149.325 149.105L154.192 148.22C155.553 147.977 156.858 148.873 157.113 150.245L165.642 197.239C167.832 209.303 165.454 221.865 158.485 231.948C151.593 241.909 141.25 248.583 129.336 250.752C126.604 251.25 123.894 251.494 121.217 251.494Z" fill="#2F4BD4"/>
<g clip-path="url(#clip1_36_192)">
<path d="M70.909 43.8756C69.3609 37.609 67.8083 31.3559 66.2646 25.0984" stroke="#E9BD10" stroke-width="4.5742" stroke-miterlimit="10" stroke-linecap="round" stroke-linejoin="round"/>
<path d="M57.8587 50.2188C53.8847 45.1375 49.9197 40.0519 45.9501 34.9796" stroke="#E9BD10" stroke-width="4.5742" stroke-miterlimit="10" stroke-linecap="round" stroke-linejoin="round"/>
<path d="M48.6758 61.0825C43.0061 58.0206 37.3321 54.9498 31.6624 51.8879" stroke="#E9BD10" stroke-width="4.5742" stroke-miterlimit="10" stroke-linecap="round" stroke-linejoin="round"/>
<path d="M44.5945 75.0078C38.1632 74.5329 31.7364 74.0446 25.3051 73.5697" stroke="#E9BD10" stroke-width="4.5742" stroke-miterlimit="10" stroke-linecap="round" stroke-linejoin="round"/>
</g>
</g>
<defs>
<filter id="filter0_f_36_192" x="28" y="257" width="218" height="58" filterUnits="userSpaceOnUse" color-interpolation-filters="sRGB">
<feFlood flood-opacity="0" result="BackgroundImageFix"/>
<feBlend mode="normal" in="SourceGraphic" in2="BackgroundImageFix" result="shape"/>
<feGaussianBlur stdDeviation="11.5" result="effect1_foregroundBlur_36_192"/>
</filter>
<clipPath id="clip0_36_192">
<rect width="210" height="284" fill="white"/>
</clipPath>
<clipPath id="clip1_36_192">
<rect width="39.95" height="62.66" fill="white" transform="matrix(-0.43899 -0.898492 -0.898492 0.43899 84.8369 57.8945)"/>
</clipPath>
</defs>
</svg>
