<svg width="200" height="182" viewBox="0 0 200 182" fill="none" xmlns="http://www.w3.org/2000/svg">
<path d="M151.131 11.218L149.566 10.6674L147.891 10.5098L146.294 10.0596L144.651 9.84321L143.001 9.69353L141.354 9.44807L139.688 9.69407L138.04 9.66924L136.398 9.79834L134.725 9.80719L133.108 10.2065L131.499 10.5807L129.864 10.8637L128.291 11.3872L126.769 12.0514L125.161 12.5089L123.636 13.1857L122.179 13.9946L120.837 14.9642L119.41 15.8102L117.983 16.6561L116.696 17.7122L115.38 18.7314L114.338 20.0585L113.178 21.2376L112.006 22.4127L110.951 23.6942L109.83 24.9268L108.952 26.3472L108.251 27.8648L107.214 29.1794L106.709 30.773L105.915 32.2338L105.39 33.8069L104.688 35.3245L104.363 36.9613L104.03 38.5815L103.5 40.1672L103.467 41.8411L103.184 43.4772L103.021 45.124L102.95 46.786L103.187 48.435L103.341 50.0852L103.337 51.7545L103.736 53.3719L103.915 55.0301L104.484 56.5908L104.978 58.1692L105.439 59.7648L106.04 61.3084L106.849 62.7655L107.681 64.1889L108.341 65.7232L109.273 67.0952L110.279 68.4078L111.269 69.7289L112.23 71.0963L113.445 72.2267L114.558 73.4627L115.794 74.5719L117.12 75.5716L118.527 76.4451L119.78 77.5458L121.216 78.3731L122.692 79.1165L124.188 79.8388L125.652 80.6199L127.217 81.1705L128.813 81.6207L130.366 82.209L131.99 82.5714L133.625 82.8129L135.249 83.1336L136.9 83.3249L138.556 83.283L140.204 83.5701L141.851 83.2494L143.521 83.3364L145.143 82.9662L146.815 82.9157L148.378 82.2924L150.036 82.0715L151.587 81.4859L153.152 80.9459L154.709 80.3893L156.226 79.696L157.691 78.9036L159.182 78.1607L160.537 77.1951L161.938 76.2996L163.153 75.1655L164.376 74.0478L165.608 72.9468L166.717 71.7102L168.029 70.662L169.05 69.356L170.016 68.0051L170.821 66.5067L171.834 65.1842L172.497 63.6547L173.266 62.186L174.131 60.7617L174.631 59.1805L175.032 57.5676L175.746 56.054L175.916 54.3822L176.421 52.7885L176.6 51.1332L176.829 49.4937L176.804 47.829L177.012 46.1691L176.987 44.5044L176.762 42.8594L176.525 41.2104L176.226 39.5832L175.989 37.9342L175.379 36.3741L175.129 34.7212L174.499 33.1823L173.918 31.6176L173.225 30.1421L172.285 28.7536L171.572 27.2576L170.73 25.8176L169.798 24.4456L168.743 23.1588L167.552 21.9948L166.553 20.6571L165.28 19.5775L164.13 18.3712L162.853 17.3042L161.531 16.292L160.1 15.4522L158.677 14.6288L157.306 13.684L155.741 13.0918L154.24 12.382L152.74 11.6722L151.131 11.218ZM157.584 23.92L158.621 25.0489L159.301 26.5621L159.285 28.2275L159.23 29.8809L159.03 31.5157L158.542 33.1008L158.347 34.7647L157.721 36.3061L157.086 37.831L156.166 39.2104L155.398 40.6791L154.377 41.9851L153.022 42.909L151.495 43.1987L150.28 42.1516L150.01 40.5198L149.932 38.8933L149.97 37.2485L150.04 35.5865L150.44 33.9736L151.016 32.4163L151.513 30.8477L152.219 29.3592L152.719 27.7781L153.618 26.3782L154.74 25.1456L156.023 24.102L157.584 23.92ZM139.634 18.2368L140.67 19.3657L141.351 20.8789L141.334 22.5442L141.28 24.1977L141.08 25.8325L140.592 27.4176L140.396 29.0815L139.77 30.6229L139.135 32.1478L138.216 33.5272L137.447 34.9959L136.426 36.3019L135.071 37.2258L133.544 37.5155L132.33 36.4684L132.06 34.8366L131.981 33.2101L132.019 31.5653L132.089 29.9033L132.49 28.2904L133.066 26.7331L133.562 25.1645L134.268 23.676L134.785 22.0863L135.684 20.6864L136.806 19.4538L138.088 18.4102L139.634 18.2368ZM168.899 47.1211L167.498 47.2299L166.148 47.6584L166.102 47.63L166.002 49.3382L165.795 51.0398L165.287 52.6876L165.084 54.4182L164.462 55.9471L163.827 57.472L162.92 58.8554L162.214 60.3439L161.32 61.7312L160.214 62.9552L159.164 64.2242L158.092 65.4727L156.742 66.4258L155.437 67.4072L154.112 68.3682L152.778 69.3543L151.295 70.0721L149.743 70.6161L148.221 71.2387L146.629 71.6459L145.09 72.2771L143.463 72.535L141.808 72.6186L140.157 72.6895L138.522 72.4896L136.886 72.4272L135.229 72.3858L133.68 71.785L132.029 71.5937L130.508 70.9051L128.96 70.3459L127.557 69.4598L126.065 68.7666L124.658 67.893L123.483 66.7204L122.105 65.8007L121.004 64.5686L119.957 63.2983L118.98 61.9811L117.9 60.728L117.018 59.3303L116.432 57.7782L115.649 56.329L115.246 54.7242L114.624 53.2018L114.25 51.5923L114.08 49.9507L113.935 48.3169L113.748 46.6838L113.706 45.0277L114.04 43.4075L114.24 41.7727L114.52 40.1491L114.991 38.5726L115.696 37.0008L116.262 35.3854L117.118 33.9029L117.987 32.4244L117.976 32.283L116.852 31.4302L115.974 30.3238L115.899 29.2093L117.1 29.1202L118.239 30.1435L119.272 31.285L120.431 32.2872L121.611 33.2683L122.644 34.4098L122.716 35.5784L121.817 35.8877L121.514 35.6259L120.374 34.5609L119.157 33.6096L118.321 34.7671L117.874 36.2683L117.078 37.6042L116.722 39.1206L116.051 40.6753L115.984 42.3663L115.551 43.9964L115.531 45.6743L115.514 47.3396L115.552 49.0083L115.772 50.6658L116.15 52.3043L116.512 53.9514L117.168 55.4983L117.778 57.0583L118.682 58.4765L119.593 59.8696L120.521 61.2541L121.634 62.4901L122.567 63.9037L123.828 65.0209L125.146 66.0457L126.615 66.8558L127.953 67.8595L129.511 68.4768L131.015 69.174L132.516 69.9254L134.161 70.2666L135.82 70.4744L137.447 70.9617L139.126 70.8445L140.793 71.0272L142.455 70.8354L144.125 70.6601L145.737 70.1901L147.398 69.915L148.992 69.3704L150.491 68.6024L151.96 67.7974L153.374 66.9058L154.809 66.0348L155.977 64.8306L157.369 63.8769L158.461 62.6073L159.566 61.3417L160.54 59.9656L161.245 58.4355L162.123 57.0151L162.849 55.5055L163.433 53.9231L163.801 52.4105L163.974 50.8635L164.367 49.359L164.382 47.831L162.806 47.9258L161.236 48.1329L160.919 48.0878L160.311 47.5226L161.017 46.5586L162.556 46.4935L164.056 46.1126L165.585 45.9478L167.132 45.8576L168.66 45.6512L169.518 46.2542L168.899 47.1211Z" fill="#FCFCFC"/>
<path d="M199.536 158.708L180.282 157.509L195.836 168.921L178.511 160.427L188.489 176.919L175.749 162.459L178.667 181.505L172.44 163.267L167.828 182L169.027 162.746L157.615 178.274L166.109 160.974L149.617 170.953L164.077 158.213L145.031 161.131L163.269 154.904L144.536 150.292L163.79 151.491L148.236 140.079L165.562 148.573L155.583 132.081L168.323 146.541L165.405 127.469L171.632 145.707L176.244 127L175.045 146.228L186.457 130.7L177.963 148L194.456 138.021L179.996 150.787L199.067 147.869L180.803 154.096L199.536 158.708Z" fill="#EDA2DC"/>
<path d="M32.6461 12.17L25.2561 11.71L31.2261 16.09L24.5761 12.83L28.4061 19.16L23.5161 13.61L24.6361 20.92L22.2461 13.92L20.4761 21.11L20.9361 13.72L16.5561 19.68L19.8161 13.04L13.4861 16.87L19.0361 11.98L11.7161 13.1L18.7261 10.71L11.5361 8.94L18.9261 9.4L12.9561 5.02L19.5961 8.28L15.7661 1.95L20.6661 7.5L19.5461 0.18L21.9361 7.18L23.7061 0L23.2461 7.38L27.6261 1.42L24.3661 8.06L30.6961 4.23L25.1461 9.13L32.4561 8.01L25.4561 10.4L32.6461 12.17Z" fill="#E9BD10"/>
<path d="M75.4031 111.166L48.5503 111.361L26.5148 125.195L25.4597 99.846L10.0905 78.6123L36.9433 78.4174L58.9788 64.5833L60.0339 89.9324L75.4031 111.166Z" fill="#4C0378"/>
</svg>
