<svg width="481" height="221" viewBox="0 0 481 221" fill="none" xmlns="http://www.w3.org/2000/svg">
<g clip-path="url(#clip0_92_6119)">
<path d="M280.48 -27.5702C276.62 -21.5002 271.69 -16.0902 265.91 -11.7602C260.14 -7.42019 253.49 -4.22018 246.42 -2.54018C239.36 -0.870184 231.89 -0.830184 224.81 -2.47018C217.72 -4.10018 211.07 -7.38018 205.28 -11.6802C199.48 -15.9902 194.49 -21.2702 190.23 -27.0202C189.16 -28.4602 188.15 -29.9302 187.16 -31.4202L184.32 -35.8502C182.42 -38.7302 180.37 -41.5202 178.2 -44.2002C169.52 -54.9002 158.57 -63.8802 146.03 -69.4402C139.77 -72.2002 133.12 -74.1002 126.36 -74.8102C119.6 -75.5202 112.73 -75.0202 106.27 -73.0902C99.81 -71.1802 93.82 -67.7902 88.86 -63.2502C83.88 -58.7202 79.94 -53.0702 76.95 -46.9602C70.95 -34.6902 68.56 -20.7502 68.88 -7.04018C69.23 6.70982 72.42 20.3598 77.96 32.9498C83.49 45.5598 91.41 57.0898 100.94 67.0398C103.33 69.5298 105.8 71.9398 108.38 74.2298C110.94 76.5298 113.66 78.7198 116.34 80.9398C121.77 85.2998 127.34 89.4898 133.04 93.4898C155.88 109.46 180.93 122.2 207.17 131.53C233.42 140.88 260.85 146.83 288.58 149.65C292.04 150.03 295.52 150.29 298.99 150.58C302.47 150.8 305.94 151.07 309.43 151.2C316.39 151.56 323.34 151.67 330.3 151.54C344.21 151.3 358.11 150.18 371.86 148.11C385.6 146.03 399.21 143.04 412.38 138.8C418.96 136.66 425.43 134.23 431.68 131.36C437.93 128.5 443.98 125.23 449.57 121.39C455.16 117.55 460.34 113.15 464.51 108.02C468.67 102.9 471.82 97.0398 473.1 90.7498C473.76 87.6198 474 84.3898 473.78 81.1898C473.55 78.0198 472.93 74.9198 471.69 72.0998C469.32 66.3998 464.57 61.9698 458.86 58.9998C453.13 56.0198 446.57 54.3498 439.9 53.4198C433.21 52.4998 426.36 52.3498 419.52 52.6498C405.82 53.2698 392.14 55.7298 378.79 59.2798C365.44 62.8598 352.38 67.6198 339.93 73.5398C333.69 76.4998 327.67 79.7898 321.8 83.4198C315.92 87.0598 310.14 90.9598 304.4 94.9298C292.92 102.9 281.59 111.18 270.17 119.38C258.75 127.59 247.26 135.74 235.58 143.64C212.2 159.41 188.05 174.32 162.22 186.29C149.31 192.24 135.96 197.43 122.13 201.25C108.31 205.05 93.95 207.47 79.39 207.49C64.86 207.54 50.15 205.01 36.53 199.5C29.72 196.76 23.21 193.32 17.09 189.31C10.99 185.3 5.3 180.7 0 175.72L6.44 168.94C11.35 173.6 16.6 177.89 22.2 181.61C27.81 185.33 33.75 188.51 39.97 191.04C52.4 196.13 65.86 198.54 79.41 198.56C92.97 198.6 106.58 196.4 119.83 192.83C133.1 189.24 146.05 184.28 158.66 178.54C183.9 167 207.79 152.42 231.03 136.9C242.65 129.12 254.12 121.08 265.55 112.94C276.99 104.81 288.37 96.5698 300.01 88.5798C305.83 84.5898 311.72 80.6598 317.8 76.9298C323.89 73.1998 330.23 69.7798 336.7 66.7498C349.64 60.6698 363.11 55.8298 376.91 52.2098C390.71 48.6098 404.85 46.1298 419.22 45.5398C426.4 45.2598 433.65 45.4498 440.88 46.4698C448.09 47.5198 455.35 49.3398 462.1 52.8798C465.44 54.6798 468.67 56.8698 471.42 59.6798C472.83 61.0498 474.04 62.6198 475.18 64.2298C476.26 65.8898 477.25 67.6098 478 69.4398C479.57 73.0698 480.32 76.9598 480.57 80.7898C480.82 84.5998 480.52 88.4398 479.71 92.1798C478.14 99.6898 474.37 106.52 469.67 112.25C464.94 118 459.26 122.74 453.27 126.82C447.26 130.9 440.89 134.3 434.36 137.25C427.83 140.21 421.12 142.69 414.33 144.86C400.74 149.16 386.81 152.15 372.77 154.21C358.73 156.25 344.57 157.32 330.4 157.5C323.32 157.59 316.21 157.44 309.15 157.05C305.62 156.9 302.09 156.61 298.56 156.37C295.04 156.05 291.51 155.78 287.99 155.37C259.85 152.37 232.01 146.19 205.38 136.57C178.75 126.96 153.34 113.88 130.21 97.5398C124.44 93.4398 118.8 89.1598 113.3 84.6998C110.59 82.4298 107.85 80.1998 105.19 77.7998C102.53 75.4198 99.98 72.8998 97.52 70.3198C87.68 59.9598 79.5 47.9398 73.81 34.7798C68.1 21.6398 64.85 7.40982 64.55 -6.93018C64.28 -21.2402 66.82 -35.7802 73.24 -48.7802C76.44 -55.2502 80.7 -61.3102 86.15 -66.2302C91.57 -71.1402 98.14 -74.8202 105.16 -76.8502C112.18 -78.9102 119.58 -79.4102 126.78 -78.6102C133.99 -77.8202 141 -75.7802 147.56 -72.8402C160.71 -66.9302 172.03 -57.5202 180.96 -46.4002C183.2 -43.6202 185.29 -40.7202 187.24 -37.7402L190.07 -33.2902C191.01 -31.8502 191.99 -30.4302 193.01 -29.0402C197.08 -23.5002 201.82 -18.4402 207.29 -14.3502C212.75 -10.2602 218.96 -7.18018 225.56 -5.63018C232.16 -4.07018 239.1 -4.08018 245.71 -5.61018C252.32 -7.15018 258.6 -10.1302 264.07 -14.2102C269.55 -18.2802 274.26 -23.3902 277.96 -29.1602L280.48 -27.5702Z" fill="#FCFCFC"/>
<path d="M139.838 169.058L139.635 184.423L155 184.307L143.988 195.044L154.942 205.824L139.577 205.621L139.679 221L128.956 209.988L118.176 220.927L118.365 205.562L103 205.679L114.012 194.956L103.073 184.162L118.438 184.365L118.321 169L129.044 179.998L139.838 169.058Z" fill="#FC5353"/>
</g>
<defs>
<clipPath id="clip0_92_6119">
<rect width="481" height="221" fill="white"/>
</clipPath>
</defs>
</svg>
