<svg width="15" height="22" viewBox="0 0 15 22" fill="none" xmlns="http://www.w3.org/2000/svg" class="h-[16px] w-[22px]">
<path d="M14.8371 10.7601L14.1349 10.4912C11.022 9.30629 8.58229 5.52635 7.82215 0.692384L7.74976 0.212622C7.70632 -0.070874 7.29368 -0.070874 7.25024 0.212622L7.17785 0.692384C6.41771 5.53362 3.98528 9.31356 0.865107 10.4912L0.162886 10.7601C-0.0542954 10.8401 -0.0542954 11.1527 0.162886 11.2399L0.865107 11.5088C3.97804 12.6937 6.41771 16.4736 7.17785 21.3076L7.25024 21.7874C7.29368 22.0709 7.70632 22.0709 7.74976 21.7874L7.82215 21.3076C8.58229 16.4664 11.0147 12.6864 14.1349 11.5088L14.8371 11.2399C15.0543 11.1599 15.0543 10.8473 14.8371 10.7601Z" fill="#008B9A"/>
</svg>
